<svg style="stroke: black;stroke-width: 30px;fill: white;" version="1.1" xmlns="http://www.w3.org/2000/svg" xmlns:xlink="http://www.w3.org/1999/xlink" width="1024" height="1024" viewBox="-46.7232 21.5431 0.6427 0.9785"><g transform="scale(0.0001,-0.0001)"><path class="C3101409" d="M-465330 -221854l-316 -154l-106 -192l-211 -62l-348 126l-136 -124l-356 95l85 382l263 -22l73 -59l707 105l102 51l243 -146Z" centroide="-466135.3961281754,-221991.47477825434"></path><path class="C3102605" d="M-465653 -219333l53 -116l531 -343l77 -306l296 -225l334 -49l-135 -113l-28 -460l242 -143l-36 -120l17 -276l-593 -354l-155 -52l-280 36l-243 146l-102 -51l-707 -105l-73 59l51 229l274 74l145 140l-176 56l-80 221l-226 167l-533 -33l-194 119l33 97l514 47l-206 314l98 151l133 -12l123 140l367 -54l-47 199l259 538l183 158l84 -79Z" centroide="-465552.7920581611,-220759.7064446162"></path><path class="C3105301" d="M-463739 -216932h2l236 -207l-25 -71l239 -225l-515 -61l-163 -101l-20 6l-232 265l-129 64l120 134l28 202l348 -57l111 51Z" centroide="-463859.05820514774,-217245.75573458598"></path><path class="C3108404" d="M-463225 -215731l271 13l5 -159l168 -214l-192 -104l4 -140l-167 -283l-216 -86l-173 -184l-212 -44h-2l-111 -51l-348 57l-28 -202l-120 -134l129 -64l-207 -225l-193 -21l-38 280l145 205l-325 -29l68 120l-227 67l-79 -102l-199 183l107 120l-95 274l-286 -80l17 154l347 252l-62 119l126 356l169 -239l302 131l135 284l253 46l61 -272l405 -7l182 -156l386 135Z" centroide="-464199.47346288606,-216370.78137509024"></path><path class="C3110301" d="M-463965 -217597l100 -249l271 21l160 -235l139 -75l230 45l-108 302l284 103l398 -159l25 -126l355 86l47 -220l274 -249l151 86l142 -83l-64 -263l260 -130l-93 -176l-379 -108l-92 -85l-164 82l-80 -94l-434 -35l-132 -241l-208 24l-103 -118l-274 155l-156 -142l127 -355l-194 -225l-217 284l-247 -359l-79 33l-336 -269l-334 49l-296 225l-77 306l-531 343l-53 116l207 101l200 -12l62 204l-81 299l260 171l163 -8l-51 306l233 210l146 -28l295 142l-31 123l265 234l20 -6Z" centroide="-463636.7564123318,-218903.15397327454"></path><path class="C3111002" d="M-461743 -215816l85 28l91 -237l311 -371l416 -128l-132 -319l-194 -174l89 -32l-73 -81l148 -234l-445 -333l2 -219l213 -42l-110 -124l354 -330l171 31l12 -201l-110 -182l-386 21l-260 130l64 263l-142 83l-151 -86l-274 249l-47 220l-355 -86l-25 126l-398 159l-284 -103l108 -302l-230 -45l-139 75l-160 235l-271 -21l-100 249l163 101l515 61l-239 225l25 71l-236 207h-2h2l212 44l173 184l216 86l167 283l-4 140l192 104l-168 214l-5 159l427 178l56 -208l178 -160l240 55l280 -33l30 70Z" centroide="-462215.41478179226,-217106.58455858196"></path><path class="C3129905" d="M-463947 -220136l-122 -172l94 -121l331 -4l175 -113l-99 -261l-245 -5l-136 -180l-370 -216l36 120l-242 143l28 460l135 113l336 269l79 -33Z" centroide="-464079.8218153031,-220668.3334313805"></path><path class="C3130606" d="M-462353 -222673l213 -57l35 -122l-159 -34l58 -178l-91 -392l-145 -178l19 -219l-184 -341l-108 -45l-66 385l-77 45l-164 -168l17 -145l-337 246l-69 527l-215 219l559 153l82 161l356 131l276 12Z" centroide="-462808.8967370784,-223359.0148211863"></path><path class="C3134905" d="M-465062 -223408l-396 -78l-242 -318l-413 -53l-222 101l-147 -58l-127 154l-142 -34l-225 262l-34 218l-222 148l179 107l-51 336l164 157l137 301l356 -95l136 124l348 -126l211 62l106 192l316 154l280 -36l155 52l-11 -154l-137 -76l88 -232l148 -109l-37 -204l-387 -119l-62 -269l114 -316l117 -91Z" centroide="-466013.6054702673,-222871.08420118174"></path><path class="C3143401" d="M-464231 -223993l-92 -182l17 -396l105 -69l-403 -460l40 -116l-857 273l115 235l-192 13l-50 229l-178 -65l-191 150l-246 -5l-153 28l-348 206l55 492l127 -154l147 58l222 -101l413 53l242 318l396 78l121 72l249 -69l113 -135l158 74l131 -115l-132 -200l191 -212Z" centroide="-465199.1202696847,-224194.36537283397"></path><path class="C3146008" d="M-462551 -221459l31 5l146 -355l-297 -298l-324 -164l152 -52l216 83l410 -125l-136 -308l-276 -12l-356 -131l-82 -161l-559 -153l215 -219l69 -527l-252 -14l-179 146l-91 -152l-367 -97l-191 212l132 200l-131 115l-158 -74l-113 135l-249 69l-121 -72l-117 91l-114 316l62 269l387 119l37 204l-148 109l-88 232l137 76l11 154l593 354l426 -162l312 101l250 2l152 139l257 -19l103 79l251 -115Z" centroide="-463833.722629401,-222548.68506119505"></path><path class="C3151800" d="M-464217 -217326l232 -265l-265 -234l31 -123l-295 -142l-146 28l-233 -210l51 -306l-163 8l-260 -171l81 -299l-62 -204l-200 12l-207 -101l-84 79l-183 -158l-259 -538l-263 205l-114 351l-180 284l205 150l56 156l-192 314l-240 115l383 463l-15 120l233 106l-2 272l78 285l-61 65l76 309l70 -10l376 -85l123 64l-20 195l120 57l286 80l95 -274l-107 -120l199 -183l79 102l227 -67l-68 -120l325 29l-145 -205l38 -280l193 21l207 225Z" centroide="-465635.0116461706,-218076.32303549256"></path><path class="C3159209" d="M-460915 -218764l-100 -244l-149 -95l-247 -475l110 -181l-200 -198l-276 -75l-40 -397l-167 73l-195 -310l-207 -62l10 -367l-175 -364l-251 115l-103 -79l-257 19l-152 -139l-250 -2l-312 -101l-426 162l-17 276l370 216l136 180l245 5l99 261l-175 113l-331 4l-94 121l122 172l247 359l217 -284l194 225l-127 355l156 142l274 -155l103 118l208 -24l132 241l434 35l80 94l164 -82l92 85l379 108l93 176l386 -21Z" centroide="-462723.0480476535,-220239.13325542"></path></g></svg>