<svg style="stroke: black;stroke-width: 30px;fill: white;" version="1.1" xmlns="http://www.w3.org/2000/svg" xmlns:xlink="http://www.w3.org/1999/xlink" width="1024" height="1024" viewBox="-46.6907 21.6454 0.2922 0.3496"><g transform="scale(0.0001,-0.0001)"><path class="C3151800" d="M-464217 -217326l232 -265l-265 -234l31 -123l-295 -142l-146 28l-233 -210l51 -306l-163 8l-260 -171l81 -299l-62 -204l-200 12l-207 -101l-84 79l-183 -158l-259 -538l-263 205l-114 351l-180 284l205 150l56 156l-192 314l-240 115l383 463l-15 120l233 106l-2 272l78 285l-61 65l76 309l70 -10l376 -85l123 64l-20 195l120 57l286 80l95 -274l-107 -120l199 -183l79 102l227 -67l-68 -120l325 29l-145 -205l38 -280l193 21l207 225Z" centroide="-465635.0116461706,-218076.32303549256"></path></g></svg>