<svg style="stroke: black;stroke-width: 30px;fill: white;" version="1.1" xmlns="http://www.w3.org/2000/svg" xmlns:xlink="http://www.w3.org/1999/xlink" width="1024" height="1024" viewBox="-53.1078 14.2333 24.2702 11.0767"><g transform="scale(0.0001,-0.0001)"><path class="C31" d="M-402222 -179804l-331 88l-902 479l-409 -47l-310 14l-276 82l-177 -94l-276 209l-102 -43l-265 197l-409 -241l-168 -21l-24 -209l-281 -32l-109 -488l-199 -25l-153 -197l-200 31l-223 -136l-221 225l-270 -84l-190 63l8 169l-213 48l-62 247l-265 -67l-56 95l-326 -342l-186 173l-211 -167l159 -129l1136 -1069l19 -484l-233 -41l-686 209l-280 291l-129 -1l-280 -262l-169 77l-54 -258l-258 131l-80 -284l-217 21l-45 101l-374 -76l-44 -137l-364 -166l-117 -178l132 -170l-115 -67l63 -186l-625 -527l115 -451l-7 -258l-114 -23l-9 -213l132 -87l-194 -38l-141 -174l77 -100l1500 -146l72 -196l-261 -1286l95 -126l-207 -106l235 -250l244 -136l514 -144l124 -76l14 -810l202 -301l31 -152l-199 -155l-91 57l-182 -158l-552 38l-914 -16l-229 421l-991 -4l-125 -261l57 -353l246 -190l63 226l190 -92l231 60l134 -284l261 -79l232 -395l390 -112l40 -230l174 -113l252 60l-142 -173l-334 -148l-61 -182l62 -275l117 -175l284 -110l128 40l56 -247l224 -2l33 -117l252 -167l-60 -102l186 -70l25 -342l184 -235l-189 -261l29 -192l185 -25l-17 -200l-226 -88l118 -154l250 -128l-308 -372l80 -381l-203 -88l-172 -375l233 -305l-270 -348l-6 -94l-473 5l-271 173l54 -273l-37 -239l81 -319l-351 -140l-13 -135l-261 -63l-84 -330l-216 -55l-80 -148l-311 -147l-84 -264l-31 -420l-111 -52l164 -214l105 -391l-199 -425l-21 -425l-189 -117l-246 -40l-148 -303l-281 -51l-283 59l-109 -359l-81 -62l111 -184l-98 -445l-141 -161l-55 -305l-442 -1009l-288 -183l-3456 5l-104 -224l-150 -652l-429 -179l-282 -382l-62 -223l144 -45l118 -349l304 -109l34 -541l-260 -60l136 -334h0l35 -339l-200 -67l-129 -432l-150 -169l388 -72l102 -191l-407 -430l-132 -360l22 -208l-119 11l-39 -235l-44 -133l-259 -182l-236 32l-67 -349l87 -97l-407 -597l-92 -374l-453 105l-259 -94l-460 -9l-215 -234l-228 -10l-133 -150l104 -179l253 -175l308 -125l45 -130l-207 18l-35 -206l-267 -246l-85 -234l-239 21l-70 -280l-209 -184l-24 -172l-144 -147l139 -234l-80 -193l144 -87l-17 -202l-390 -319l-4 -245l-84 -107l133 -202l-126 -73l69 -213l-220 -204l136 -167l-167 -62l-129 102l-100 -96l26 -192l-168 -309l241 -96l134 -181l-217 -213h0l-119 -198l-181 -14l-37 -228l-205 -94l57 -79l-187 -112l-256 -392l137 -51l-144 -139l216 -27l79 -202l388 70l194 -261l172 -128l-45 -232l-371 -115l-269 -174l-243 48l-379 -206l-426 -145l-1628 -690l-133 -107l-706 -233l-550 -295l-478 -209l-937 -297l30 -64l-307 -249l-598 -243l-243 -208l-114 42l-345 -131l60 -214l-424 -272l-306 105l-161 -67l-43 -144l-157 -6l-125 268l216 197l42 289l-247 -40l-159 111l-325 -156l7 116l-202 -79l-126 196l-446 36l-235 -105l-140 134l-488 -28l-28 -94l-593 -348l-379 -181l-388 -25l-34 137l-524 -223l-244 127l-10 193l-271 -300l-87 -20l-248 190l-205 -101l-58 -154l-101 188l-372 -89l-117 -153l-162 26l-171 296l-352 -190l-421 -166l-391 -23l-119 -122l-609 -287l-117 30l-396 -234l-222 117l-129 -91l-321 -44l-39 -107l-241 23l-234 -152l20 -208l-243 -45l-190 -198l-123 67l-239 -244l-593 -172l-26 241l-288 10l-256 -165l-427 71l-277 -201l-72 136l-394 72l-229 -58l-17 -129l-235 -236l-480 -291l-332 -83l-237 111l-390 -150l-197 -296l-171 -150l-450 111l-169 100l-218 -172l-463 -108l-164 -187l15 -86l-271 -170l-245 82l-303 -91l-139 -222l-373 11l-249 -220l-156 71l-470 49l-627 -199l-592 -243l-263 -417l-447 -141l-388 -189l-12 -241l-144 -108l-181 33l-391 -40l-280 -211l-368 -147l-128 19l-24 293l-226 39l-383 295l-150 -398l-122 23l-239 -205l-496 -101l-98 54l290 251l-212 247l-134 -173l-188 -50l-94 -138l-480 -134l-149 150l222 381l-40 213l-159 36l-167 -131l-230 84l-190 -306l200 -125l235 -307l-236 -104l-253 30l-77 -121l-373 -221l-238 -54l-82 -240l242 -163l392 180l265 -62l165 -297l15 -163l-171 -120l-13 -133l168 -161l-282 67l-132 150l-160 -130l40 -349l-239 -178l-120 249l-205 39l-248 -80l-165 -313l-242 -68l-23 299l-212 298l-263 -301l-126 2l-563 -430l-203 41l-228 -119l-132 53l-314 -28l-438 -283l-149 103l171 219l-82 334l-548 -138l-575 -199l-95 152l-282 -222l-224 102l-278 -169l-185 109l-118 226l49 360l-62 72l152 389l182 115l89 171l-249 -9l-134 144l-799 193l-45 205l-234 287l529 170l347 -16l-32 170l-244 79l-24 132l183 40l-161 223l84 131l-201 142l179 133l-33 105l-213 68l-141 182l-476 54l-60 101l-352 126l115 235l-192 13l-50 229l-178 -65l-191 150l-117 -49l-282 72l-348 206l55 492l-142 -34l-225 262l-34 218l-222 148l179 107l-51 336l324 404l37 456l275 -47l64 234l274 74l145 140l-176 56l-80 221l-226 167l-533 -33l-188 65l27 151l514 47l-206 314l98 151l133 -12l219 147l271 -61l-14 180l-296 224l-114 351l-180 284l205 150l56 156l-192 314l-242 121l385 457l-15 120l279 130l-48 248l78 285l-61 65l76 309l446 -95l123 64l-20 195l185 110l-48 101l347 252l-37 284l212 347l-222 198l37 291l104 117l-4 193l-118 229l-368 43l-187 157l-253 -170l-134 25l-95 280l-126 28l-114 189l16 276l-196 29l-264 -230l-143 -203l-73 119l-242 2l-231 175l32 120l-306 -100l-279 65l-187 -43l1 -128l-198 -62l-124 -140l-252 -119l-408 -96l-306 71l-196 -85l-272 44l-46 257l116 130l-50 128l123 195l-193 89l-44 207l-142 116l54 106l-225 529l-250 63l125 332l-309 -25l-230 238l13 321l-157 204l199 283l-291 167l32 190l-179 504l132 365l-58 124l-324 163l-81 254l-204 41l-296 389l255 579l-104 264l201 266l160 37l26 383l215 309l494 -58l141 241l38 393l-152 58l41 162l-148 91l-195 475l-6 299l-111 158l-574 197l-355 193l-453 328l-34 205l107 215l-128 573l133 165l34 285l424 599l81 244l-195 195l-112 397l-347 141l-132 214l-490 205l-130 180l-365 58l-322 314l-45 184l204 150l-388 497l-345 -60l-92 -107l-300 -12l-157 -125l-311 -6l-110 -292l-192 -163l-257 -51l-310 247l-55 206l-365 238l-210 -98l-720 28l-290 -109l-250 31l-156 -256l-6 -139l144 -126l-85 -186l-51 -346l-242 -274l-323 153l-109 153l-36 346l-299 251l-126 -49l-20 -366l-108 -262l-188 -210l-148 46l-144 -178l-274 -112l-287 21l-423 222l-79 188l-230 92l-32 183l-259 385l-207 112l-184 -57l27 -136l-93 -305l345 -374l3 -125l-360 -160l-311 64l-296 236l-595 -93l-309 97l-333 -68l-521 -179l-635 80l-386 -57l-445 -294l-280 -10l-413 60l-243 109l-498 -144l-410 22l-332 -186l19 -349l-188 -268l-148 -334l-12 -220l128 -212l-30 -377l114 -422l-146 -348l-182 -81l-632 382l-73 133l46 317v788l40 159l-103 556l-140 370l-469 207l-345 -46l-285 -713l-265 -475l-611 -412l-194 100l-223 -7l-338 451l-52 290l-350 642l-93 632l13 435l101 429l132 127l356 51l-13 301l-154 75l-325 15l-352 -196l-237 -66l-781 44l-193 43l-389 277l-107 305l-480 140l-546 -107l-250 -147h-811l-373 66l-330 2l-528 -89l-185 -131l-346 11l-577 214l-238 39l-422 -67l-351 115l-501 398l-332 18l-350 -42l-502 113l-295 -102l-461 89l-151 -62l-464 94l-644 635l-521 213l-284 -153l-196 -12l-276 -137l-331 -62l-317 -435l-223 -112l-262 -362l-773 -230l-482 -71l-337 -211l-342 -114l-246 -211l-210 7l-365 -248l-119 -147l-236 -68l-313 -489l-174 370l118 231l6 292l-155 370l185 343l30 184l-199 359l-32 630l-174 303l120 206l-181 211l76 159l3 278l602 1092l282 -75l218 22l50 162l-79 294l-321 417l-9 142l289 189l455 -134l401 -173l141 13l103 218l-504 522l375 772l152 505l339 325l173 33l238 209l63 452l79 74l510 105l100 134l-62 213l115 64l821 -31l157 182l374 259l261 421l108 383l-90 84l34 282l-112 244l62 196l446 186l177 195l199 615l292 99l241 184l178 441l379 595l642 229l514 -11l412 147l776 -80l299 287l214 421l473 -32l65 -88l433 -105l576 127l379 -254l164 41l197 -108l164 20l115 281l393 -28l273 206l235 66l343 -130l127 98l-176 185l106 183l668 129l182 -42l147 191l-56 196l140 153l395 -12l87 -157l39 -516l527 -501l124 -274l252 -81l128 43l136 250l219 193l130 326l378 14l27 179l181 184l223 43l42 146l252 395l258 169l1 113l-183 193l66 78l407 -42l364 350l198 -6l-26 -182l324 -146l304 192l66 209l124 77l238 -55l244 180l-14 152l461 349l190 4l295 -112l155 -158l407 -133l40 -291l117 -44l321 285l141 -45l124 109l271 -85l221 82l108 -51l567 99l72 126l315 -72l409 111l69 -232l283 -70l106 -125l280 144l35 -265l347 214l189 -80l208 98l61 -157l588 31l368 -169l-69 207l267 155l123 188l205 -141l266 -7l41 -157l610 -111l160 -368l317 -182l470 -14l76 148l221 -207l162 -39l138 -166l284 115l46 -350l131 -21l11 -162l326 82l153 213l263 -107l247 75l-103 95l156 212l192 -127l90 404l214 111l84 -146l209 -93l315 184l-89 65l195 366l215 -12l29 -130l162 -3l135 221l113 -31l184 319l50 -143l220 63l155 209l-281 257l197 159l-67 123l191 154l249 89l157 312l255 106l4 -240l127 -89l92 275l211 -4l172 219l173 13l114 168l154 -84l71 283l176 -84l143 58l-105 101l515 266l-19 201l350 154l395 114v178l-175 134l39 177l-146 49l-114 200l90 212l-214 145l-89 304l56 47l-209 275l57 152l-193 400l243 346l-57 88l217 209l-100 222l249 178l64 285l158 150l257 89l-114 211l131 154l25 274l-235 389l-174 130l-142 273l-550 77l-255 107l-168 -100l-496 -103l-91 212l-156 -146l-111 109l10 301l-117 246l-260 60l141 177l21 302l-139 188l234 121l-71 233l173 204l176 -172l227 -63l65 122l160 -46l-135 176l172 129l183 254l-148 161l172 67l-52 99l234 170l124 -72l12 218l351 316l-123 89l106 211l180 12l64 169l182 -104l162 194l104 -46l8 291l172 162l166 1l4 168l159 -80l225 216l183 -15l241 222l129 205l156 70l-63 102l186 302l-321 149l13 232l-174 86l144 122l-197 177l-174 -78l38 247l-145 100l18 362l117 126l-265 220l35 252l-137 46l-50 202l143 290l-241 253v153l-155 307l-160 -51l-105 265l-285 170l-23 130l-144 -56l-219 201l-218 -118l-7 213l-95 -93l-184 305l-392 176l-32 234l-124 123l53 368l275 341l1 400l235 183l252 290l255 402l21 319l229 256l46 236l-130 240l44 298l-151 154l-52 226l138 45l69 349l202 62l30 379l-17 140l132 212l221 81l207 -122l346 49l116 268l227 45l338 480l198 7l261 -247l285 9l217 192l709 148l1595 383l180 65l13 199l-177 347l101 374l-134 329l-12 257l-147 140l-133 329l9 634l-340 127l-82 125l-207 31l-284 267l19 452l118 350l20 401l185 315l625 384l-192 95l207 169l121 202l-378 411l-157 32l-21 470l-170 -28l-192 -170l-133 254l27 190l242 524l257 457l-87 173l-290 217l80 245l539 287l73 101l363 -5l347 -76l634 -220l408 -183l252 -229l310 -80l480 55l455 277l181 -50l113 91l-181 385l-102 85l98 379l-198 157l-57 262l250 743l-104 209l-266 81l-53 388l206 147l-9 156l339 148l91 352l334 -64l37 -203l167 -19l235 -243l193 -44l389 -351l107 12l328 -203l-28 -332l245 -103l-177 -252l-12 -172l255 -97l70 -180l268 -19l278 78l78 -195l245 33l233 -110l152 184l-50 226l277 -200l197 79l87 -165l222 7l88 315l120 -49l188 315l110 36l337 -276l-44 -175l124 -77l298 -382l-88 -390l-2 -322l-370 -354l-164 -419l-153 -40l-40 -456l-310 -118l-189 -171l-171 17l-18 -139l177 -119l65 -312l153 -167l244 55l-29 86l170 196l113 307l428 43l127 421l158 132l372 73l466 -255l372 215l96 210l361 36l428 -83l248 88l31 166l214 27l240 151l173 293l-20 201l332 71l312 458l268 200l-1 107l306 67l155 -154l223 72l83 -144l191 104l130 -44l227 321l250 -8l414 330l66 197l442 182l164 242l160 -41l-31 143l143 66l157 220l168 30l127 208l237 210l313 34l23 67l357 -128l405 -55l307 221l109 314l138 190l446 126l148 222l730 323l-16 101l404 99l210 464l238 76l-107 213l116 48l-98 134l225 -33l164 153l449 161l366 278l116 -58l147 330l273 -4l4 214l254 62l227 241l116 -27l330 268l234 8l22 88l297 91l226 -60l245 179l249 79l102 162l391 62l341 113l149 197l241 91l141 -129l303 66l258 -49l56 109l226 -43l12 116l156 -211l362 -144l51 112l227 -65l49 -179l251 229l104 -148l144 50l94 -123l346 -10l323 149l367 -67l75 -170l157 11l348 -151l92 69l214 -137l261 37l69 -131l123 101l269 -143l86 -124l160 7l-362 -547l-117 -512l-429 -815l-37 -432l-87 -174l124 -112l40 -245l-127 -317l243 -217l124 21l480 -153l356 -52l77 -82l292 27l143 -183l-97 -104l258 29l238 -60l152 -158l419 -141l288 98l125 -151l321 -140l103 -361l219 90l-17 97l348 48l76 123l-125 116l184 20l16 196l264 232l182 -12l439 251l186 11l429 283l131 -63l531 195l374 -18l327 73l235 -153l240 7l359 -177l76 -149l159 173l109 -97l188 78l274 -188l336 33l385 -97l15 -124l469 -464l481 -292l71 -117l398 -296l418 -104l64 -200l239 -179l97 64l209 -232l129 -9l535 -418l238 205l170 -70l249 -306l259 -43l31 -109l421 -228l136 -168l324 -36l6 -407l496 -160l215 37l169 -246l199 194l252 -239l327 -105l152 -112l148 152l240 97l69 -61l334 60l95 137l181 -119l38 -204l266 -165l401 -518l115 108l786 169l412 -168l209 11l42 116l313 111l212 210l33 144l242 -4l476 158l3013 -2716l1430 -1276l252 -2444l493 39l285 -62l161 94l220 4l156 -118l572 -231l210 290l234 20l194 211l303 -39l122 100h302l280 257l149 397l488 -125l118 -309l236 -22l377 115l119 343l103 19l388 -338l-57 -121l183 -218l261 93l-23 207l117 92l316 75l192 -324l193 -71l245 -234l115 120l250 -252l72 -274l247 -39l42 -268l229 64l238 -24l-10 148l129 158l222 -88l227 225l290 -254l74 -271l502 -173l182 100l195 -112l96 60l520 8l130 86l314 50l72 -236l239 -351l74 48l265 -106l14 -419l83 107l269 -86l323 -1l123 111l50 -269l84 -21l50 -330l209 -32l17 -115l304 -102l92 -178l244 42l164 -68l59 124l425 -79l-205 -238l135 -49l383 -373l69 -264l201 -215l-274 -310l-127 32l140 -221l-4 -309l-151 -67l-373 -425l156 -199l35 -201l-160 2l-216 -164l-124 -272l-117 161l-117 -10l-55 -185l-292 -259l-77 -354l-130 -301l-164 -93l-39 -262l-182 -64l-194 269l-373 -597l-297 -263l172 -416l-47 -148l-551 68l-212 147l-262 -164l-151 9l-122 -272l-106 -518l-147 -230l99 -282l-67 -296l-261 -464l-84 -47l194 -165l557 51l223 -500l-192 -146l-156 -408l-211 89l-288 -158l-172 87l-161 247l-132 -119l-219 -20l-158 -110l-109 98l-248 -12l-88 125l-199 16l-122 -105l-48 -300l-188 -454l-295 -214l-144 -575l-117 -242l148 -238l-56 -337l-167 -249l65 -341l187 -67l-160 -525l79 -310l142 -112l-245 -110l-226 -288l-142 -33l163 -186l-119 -107l53 -357l-233 -113l252 -175l200 70l233 -219l336 -93l-4 -135l256 -284l124 -17l-61 -313l139 -140l147 -348l167 -105l156 123l175 -15l-76 -308l214 -266l250 132l172 -318l75 323l236 -288l7 -206l238 -131l36 -250l152 -233l244 32l156 -154l163 9l101 -184l-42 -432l120 -68l17 -262l227 -73l75 -156l-385 -442l-509 -263l38 -180l329 -182l46 -222Z" centroide="-446733.7244446402,-184561.48240312195"></path><path class="C32" d="M-403959 -206221h0h0h0Z M-403814 -206149h0h0h0Z M-403763 -206140h0h0h0Z M-403739 -206129h0h0h0Z M-403811 -206128h0h0h0Z M-403880 -206107h0h0h0Z M-403733 -206113h0h0h0Z M-403912 -205987h0h0h0Z M-403570 -205246h0h0h0Z M-293027 -205157l-409 73l102 220l336 -191l-29 -102Z M-288407 -204759h0h0h0Z M-288376 -204646h0h0h0Z M-288422 -204594h0h0h0Z M-403108 -204215h0h0h0Z M-402962 -203820h0h0h0Z M-402782 -203653h0h0h0Z M-402795 -203631h0h0h0Z M-402806 -203545h0h0h0Z M-402528 -203536h0h0h0Z M-402511 -203522h0h0h0Z M-402715 -203354h0h0h0Z M-402708 -203333h0h0h0Z M-402686 -203324h0h0h0Z M-402687 -203215h0h0h0Z M-402709 -203218h0h0h0Z M-402222 -179804l1529 -982l3805 -2421l210 -164l-195 -488l-411 -1144l-8 -765l54 -240l-129 -435l-97 -618l-39 -1356l74 -893l115 -737l214 -1633l186 -1053l26 -330l-130 -830l-276 -766l-513 -1153l-259 -502l-10 -170l-661 -202l-379 -184l-433 -294l-494 -414l-480 -526l-53 -286l-381 -634l-32 -165l-322 -173l-85 -129l28 -210l-250 -705l-228 -31l-52 -132l162 -181l17 -331l-126 -413l7 -180l-147 -486l-173 -198l-185 -403l-31 -187l-165 265l-141 11l-211 -165l-1 -248l214 -204l-132 -81l-22 -166l-192 -176l-169 -340l-24 -216l-255 -515l-130 -383l-348 -482l-77 -317l-294 -455l-320 179l-38 -363l-172 60l-166 -223l-251 -524l-230 -119l-264 -348l-46 -270l-288 -56l-182 -336l-13 215l-238 139l-407 -298l-527 -133l-133 -163l13 -135l-373 -468l-127 -303l-30 -246l55 -234l-75 -314l-140 -96l-290 -824l-245 -158l-345 -314l-385 -627l-84 -287l22 -349l-199 214l-158 -60l-96 351l-189 53l-157 -94l-284 264l-212 92l-260 -91l-168 25l-274 -189l-186 66l-127 -103l-503 284l-343 -193l-209 44l-196 217l-605 178l-443 -71l-145 -130l-347 133l-168 228l-246 39l-52 -119l-137 77l-346 -35l-208 226l-9 115l-258 -76l-93 101l-304 91l-428 225l-105 -125l-148 52l131 157l-289 58l143 331l-105 12l71 338l148 413l-69 385l-139 66l-59 192l149 42l38 241l-79 68l140 243l-249 -20l-86 171l95 170l-35 184l-269 156l-271 40l-51 -73l-295 87l-235 326l-228 -19l39 235l119 -11l-22 208l132 360l407 430l-102 191l-388 72l150 169l129 432l200 67l-35 339h0l-136 334l260 60l-34 541l-304 109l-118 349l-144 45l62 223l282 382l429 179l150 652l104 224l3456 -5l288 183l442 1009l55 305l141 161l98 445l-111 184l81 62l109 359l283 -59l281 51l148 303l246 40l189 117l21 425l199 425l-105 391l-164 214l111 52l31 420l84 264l311 147l80 148l216 55l84 330l261 63l13 135l351 140l-81 319l37 239l-54 273l271 -173l473 -5l6 94l270 348l-233 305l172 375l203 88l-80 381l308 372l-250 128l-118 154l226 88l17 200l-185 25l-29 192l189 261l-184 235l-25 342l-186 70l60 102l-252 167l-33 117l-224 2l-56 247l-128 -40l-284 110l-117 175l-62 275l61 182l334 148l142 173l-252 -60l-174 113l-40 230l-390 112l-232 395l-261 79l-134 284l-231 -60l-190 92l-63 -226l-246 190l-57 353l125 261l991 4l229 -421l914 16l552 -38l182 158l91 -57l199 155l-31 152l-202 301l-14 810l-124 76l-514 144l-244 136l-235 250l207 106l-95 126l261 1286l-72 196l-1500 146l-77 100l141 174l194 38l-132 87l9 213l114 23l7 258l-115 451l625 527l-63 186l115 67l-132 170l117 178l364 166l44 137l374 76l45 -101l217 -21l80 284l258 -131l54 258l169 -77l280 262l129 1l280 -291l686 -209l233 41l-19 484l-1136 1069l-159 129l211 167l186 -173l326 342l56 -95l265 67l62 -247l213 -48l-8 -169l190 -63l270 84l221 -225l223 136l200 -31l153 197l199 25l109 488l281 32l24 209l168 21l409 241l265 -197l102 43l276 -209l177 94l276 -82l310 -14l409 47l902 -479l331 -88Z" centroide="-406708.24376962567,-195750.54877189666"></path><path class="C35" d="M-480017 -252488h0h0h0Z M-469028 -243964h0h0h0Z M-469076 -243813h0h0h0Z M-469767 -243736h0h0h0Z M-462946 -240284h0h0h0Z M-462929 -240262h0h0h0Z M-463245 -240081h0h0h0Z M-462557 -240008h0h0h0Z M-461810 -239705h0h0h0Z M-461766 -239704h0h0h0Z M-461674 -239663h0h0h0Z M-461699 -239278h0h0h0Z M-452952 -239197h0h0h0Z M-453243 -239183h0h0h0Z M-461679 -239147h0h0h0Z M-461316 -238939h0h0h0Z M-452603 -238890h0h0h0Z M-461215 -238789h0h0h0Z M-461323 -238713h0h0h0Z M-457792 -238577h0h0h0Z M-452784 -238540h0h0h0Z M-455236 -238554h0h0h0Z M-454463 -238373h0h0h0Z M-454092 -238306h0h0h0Z M-453914 -238295h0h0h0Z M-451520 -238336h0h0h0Z M-460255 -238271h0h0h0Z M-452269 -238148h0h0h0Z M-456689 -238067h0h0h0Z M-457167 -238003h0h0h0Z M-451379 -237935l224 -133l-320 -142l-136 163l232 112Z M-457120 -237914h0h0h0Z M-457044 -237896h0h0h0Z M-457986 -237734h0h0h0Z M-450188 -237444h0h0h0Z M-450242 -237423h0h0h0Z M-453289 -237222l377 -149l163 15l450 -412l-182 -498l64 -124l-310 3l-109 -103l-45 -240l381 -288l136 -41l-21 -525l-292 -53l-182 217l57 152l-105 163l-337 -15l-326 -161l-497 -105l-374 44l-154 183l-24 272l443 295l64 131l453 364l6 166l131 205l37 312l196 192Z M-452881 -235942h0h0h0Z M-453078 -235875h0h0h0Z M-453103 -235835h0h0h0Z M-451460 -235686h0h0h0Z M-450248 -235503h0h0h0Z M-452165 -235502h0h0h0Z M-450292 -235478h0h0h0Z M-450242 -235458h0h0h0Z M-452115 -235326h0h0h0Z M-450728 -235389l205 113l109 -134l-365 -205l-62 232l113 -6Z M-450396 -235195h0h0h0Z M-448624 -234235h0h0h0Z M-449051 -234272h0h0h0Z M-448538 -234225h0h0h0Z M-448512 -234052h0h0h0Z M-448519 -233999h0h0h0Z M-449373 -233888h0h0h0Z M-449445 -233884h0h0h0Z M-448870 -233832h0h0h0Z M-449048 -233791h0h0h0Z M-449021 -233539h0h0h0Z M-448093 -224055l540 -97l224 -189l137 -293l-30 -213l209 -260l315 -279l-51 -227l135 104l197 -84l-48 -221l116 -278l217 -78l163 71l134 -163l95 245l95 -100l144 80l416 -371l237 370l201 -121l347 173l233 -102l137 357l266 -56h0l104 -361l111 270l497 -139l96 -80l169 110l154 -137l276 77l48 -118l368 -207l-54 -119l181 -103l101 -188l-125 -239l-279 -133l28 -198l-279 16l-317 -371l27 -176l157 -30l-192 -129l-84 -247l-155 -71l-133 82l-209 -121l-637 -184l-419 79l-102 -184l-334 -164l-177 389l-209 -52l-499 -365l-202 100l-236 -123l-85 51l-517 -427l-140 100l-138 -180l-267 60l-354 -235l-2 -164l-156 -135l-257 21l-120 -175l97 -110l-84 -348l-176 -469l83 -241l-149 -282l10 -189l-503 -220l-146 -419l199 -233l334 -63l86 -345l196 71l291 -309l10 -233l178 -35l242 -244l116 -19l-262 7l-353 -117l-153 20l-402 -122l-24 238l-217 61l-248 -147l25 331l-205 62l-164 -213l-148 -39l-81 -211l-288 -228l-148 38l-505 -282l-85 83l-169 -159l127 -259l215 95l33 -163l-328 -36l-28 -232l-191 -231l-3 213l-167 44l-197 -148l143 -23l23 -169l-397 277l-285 -8l119 -192l5 -248l-248 18l-139 201l-268 -167l157 -454l-320 -89l-353 43l-5 130l-343 1l-302 -237l-164 -262l-198 6l-93 -101l-199 101l-129 -148l-105 -377l112 -493l222 33l-148 -312l155 -263l-80 -391l-281 -96l-316 99l-267 -179l-235 -35l18 92l-260 37l-50 186l-108 -11l-75 187l-249 -6l-359 -127l-19 168l-167 95l-1156 80l-84 82l-373 -75l-79 118l-751 -46l-651 -153l-381 -138l-115 -118l-211 -5l-173 -222l-236 126l-561 -220l-147 -175l-64 -385l-397 -331l137 -191l-216 -282l18 -200l-309 66l-473 -162l-172 -213l-138 62l-300 -47l52 239l136 44l-162 176l-565 61l-102 -69l140 -119l-172 -105l15 -244l-268 93l-355 -91l-686 -269l-1007 -471l-596 -306l-1038 -591l-308 -156l-1132 -702l-333 -242l-385 -364l27 -185l-192 -230l141 -345l-184 -133l-324 -96l-700 -452l-538 -404l-161 -177l-340 -239l5 -120l-177 -24l-1213 -717l-465 -338l-179 51l-55 -200l-690 -318l-462 -244l-647 -422l-1331 -1031l-920 -796l-400 -516l-45 -250l-236 -18l147 -549l-132 -100l-161 -431l-954 -739l-777 -748l9 129l732 663l-87 124l-252 1l-47 -216h-303l-205 -109l-383 227l-102 172l-211 61l-108 150l150 78l216 374l-146 24l-447 656l11 471l-180 117l90 98l-353 214l-183 -292l-71 -233l-82 147l-154 -124l-221 -329l62 330l-271 3l-35 165l-299 246l-272 150l-621 -322l-92 -406l-83 -3l-371 -473l-275 142l-18 226l-218 108l-92 334l-120 92l143 246l192 137l-52 182l97 146l-77 453l112 -70l96 337l-169 35l-11 152l120 425l374 252l190 421l-247 27l-361 255l-189 252l-250 173l-413 -133l-151 -252l-146 50l36 224l-182 115l-2 -260l-112 135l-547 -123l-31 124l-198 -165l-96 156l-237 70l-154 197l-199 -167l-181 38l-969 -68l-458 137l37 227l-261 34l-238 -480l-203 89l-370 -149l-245 131l-496 25l-291 -295l-634 92l-339 295l124 86l-141 129l67 203l-76 75l111 173l-124 414l226 25l134 171l-165 341l269 95l57 179l170 54l-58 349l172 231l-122 183l242 293l228 190l-441 123l-57 129l-307 96l-201 333l-41 249l-479 328l105 144l62 667l-249 94l-94 138l-379 75l39 110l-252 73l-78 298l-197 93l-59 220l-237 29l7 241l-113 62l41 167l-231 78l167 118l-223 414l-99 -136l-230 70l-318 343l-122 291l-109 66l205 113l-7 139l177 9l126 151l-65 400l57 110l-65 242l160 -20l22 347l-126 184l-181 73l-54 195l-308 183l85 84l-134 210l21 169l160 103l-50 172l76 311l-293 221l158 34l-76 168l58 199l123 -50v259l145 168l189 -62l7 165l-334 170l-24 240l125 -51l-43 241l-151 108l-216 -18l-14 165l132 81l-95 263l53 189l-279 746l-240 371l-207 106l-365 315l95 234l-259 117l-116 -78l-437 112l-72 157l-197 127l-339 -57l-442 205l-43 164l164 327l-331 197l-219 39l-194 220l126 256l-44 167l-204 166l-127 -42l84 -235l-112 -41l-130 181l-381 60l-188 -229l-212 56l-227 -171l-375 40l-321 -184l-279 56l-303 -25l-44 132l-279 61l-478 -196l-168 32l-184 310l-205 116l-374 -73l-139 -337l-291 12l-233 83l-283 -77l-157 98l-137 227l-405 69l-229 -179l-597 275l-185 -105l-310 -498l-233 -74l-223 157l-373 -35l-102 109l130 351l-47 166l-192 90l-159 204l-94 278l-530 370l-503 -96l-160 177l-170 36l-269 -112l-521 279l-702 61l-366 109l-181 167l-458 162l-145 265l-222 219l-413 -68l-673 163l-284 -98l-209 138l-268 4l-252 -255l-334 -128l-174 54l-338 -105l-296 107l-267 239l-465 53l-368 -121l-267 79l-71 328l-387 145l-754 -181l-266 40l-669 609l-203 39l-518 218l-434 29l-336 175l-380 13l-211 -293l-122 -402l43 -553l-405 -142l-253 -166l-126 499l-154 102l-282 -49l-218 -151l-800 89l-526 194l-220 -35l-438 -236l-465 225l-440 457l-220 -84l-517 -375l-341 -151l-298 18l-234 129l-651 153l-429 -110l-470 358l-194 66l-477 -48l-584 -380l-249 -242l-190 -87l-130 -171l-174 365l-27 264l340 467l340 215l255 67l158 276l189 95l938 307l311 137l149 239l415 370l525 349l216 82l291 205l383 109l235 188l289 118l175 164l992 396l78 163l342 239l376 353l162 270l147 80l381 588l201 757l176 300l265 272l266 127l199 231l391 348l54 299l227 437l135 112l440 135l273 312l281 585l-205 582l-299 232l-35 201l245 396l207 116l567 -130l324 149l127 238l266 221l104 437l183 345l313 241l76 169l41 471l76 134l-143 494l-161 288l8 498l135 176l419 37l339 247l140 291l44 304l116 206l460 506l479 9l422 261l85 584l-134 174l-37 520l98 398l-125 220l106 423l301 687l166 187l445 282l328 287l74 217l436 637l400 234l312 577l353 471l471 263l557 114l792 117l382 150l534 402l102 149l101 366l484 1132l313 489l236 68l119 147l365 248l210 -7l246 211l342 114l337 211l482 71l773 230l262 362l223 112l317 435l331 62l276 137l196 12l284 153l521 -213l644 -635l464 -94l151 62l461 -89l295 102l502 -113l350 42l332 -18l501 -398l351 -115l422 67l238 -39l577 -214l346 -11l185 131l528 89l330 -2l373 -66h811l250 147l546 107l480 -140l107 -305l389 -277l193 -43l781 -44l237 66l352 196l325 -15l154 -75l13 -301l-356 -51l-132 -127l-101 -429l-13 -435l93 -632l350 -642l52 -290l338 -451l223 7l194 -100l611 412l265 475l285 713l345 46l469 -207l140 -370l103 -556l-40 -159v-788l-46 -317l73 -133l632 -382l182 81l146 348l-114 422l30 377l-128 212l12 220l148 334l188 268l-19 349l332 186l410 -22l498 144l243 -109l413 -60l280 10l445 294l386 57l635 -80l521 179l333 68l309 -97l595 93l296 -236l311 -64l360 160l-3 125l-345 374l93 305l-27 136l184 57l207 -112l259 -385l32 -183l230 -92l79 -188l423 -222l287 -21l274 112l144 178l148 -46l188 210l108 262l20 366l126 49l299 -251l36 -346l109 -153l323 -153l242 274l51 346l85 186l-144 126l6 139l156 256l250 -31l290 109l720 -28l210 98l365 -238l55 -206l310 -247l257 51l192 163l110 292l311 6l157 125l300 12l92 107l345 60l388 -497l-204 -150l45 -184l322 -314l365 -58l130 -180l490 -205l132 -214l347 -141l112 -397l195 -195l-81 -244l-424 -599l-34 -285l-133 -165l128 -573l-107 -215l34 -205l453 -328l355 -193l574 -197l111 -158l6 -299l195 -475l148 -91l-41 -162l152 -58l-38 -393l-141 -241l-494 58l-215 -309l-26 -383l-160 -37l-201 -266l104 -264l-255 -579l296 -389l204 -41l81 -254l324 -163l58 -124l-132 -365l179 -504l-32 -190l291 -167l-199 -283l157 -204l-13 -321l230 -238l309 25l-125 -332l250 -63l225 -529l-54 -106l142 -116l44 -207l193 -89l-123 -195l50 -128l-116 -130l46 -257l272 -44l196 85l306 -71l408 96l252 119l124 140l198 62l-1 128l187 43l279 -65l306 100l-32 -120l231 -175l242 -2l73 -119l143 203l264 230l196 -29l-16 -276l114 -189l126 -28l95 -280l134 -25l253 170l187 -157l368 -43l118 -229l4 -193l-104 -117l-37 -291l222 -198l-212 -347l37 -284l-347 -252l48 -101l-185 -110l20 -195l-123 -64l-446 95l-76 -309l61 -65l-78 -285l48 -248l-279 -130l15 -120l-385 -457l242 -121l192 -314l-56 -156l-205 -150l180 -284l114 -351l296 -224l14 -180l-271 61l-219 -147l-133 12l-98 -151l206 -314l-514 -47l-27 -151l188 -65l533 33l226 -167l80 -221l176 -56l-145 -140l-274 -74l-64 -234l-275 47l-37 -456l-324 -404l51 -336l-179 -107l222 -148l34 -218l225 -262l142 34l-55 -492l348 -206l282 -72l117 49l191 -150l178 65l50 -229l192 -13l-115 -235l352 -126l60 -101l476 -54l141 -182l213 -68l33 -105l-179 -133l201 -142l-84 -131l161 -223l-183 -40l24 -132l244 -79l32 -170l-347 16l-529 -170l234 -287l45 -205l799 -193l134 -144l249 9l-89 -171l-182 -115l-152 -389l62 -72l-49 -360l118 -226l185 -109l278 169l224 -102l282 222l95 -152l575 199l548 138l82 -334l-171 -219l149 -103l438 283l314 28l132 -53l228 119l203 -41l563 430l126 -2l263 301l212 -298l23 -299l242 68l165 313l248 80l205 -39l120 -249l239 178l-40 349l160 130l132 -150l282 -67l-168 161l13 133l171 120l-15 163l-165 297l-265 62l-392 -180l-242 163l82 240l238 54l373 221l77 121l253 -30l236 104l-235 307l-200 125l190 306l230 -84l167 131l159 -36l40 -213l-222 -381l149 -150l480 134l94 138l188 50l134 173l212 -247l-290 -251l98 -54l496 101l239 205l122 -23l150 398l383 -295l226 -39l24 -293l128 -19l368 147l280 211l391 40l181 -33l144 108l12 241l388 189l447 141l263 417l592 243l627 199l470 -49l156 -71l249 220l373 -11l139 222l303 91l245 -82l271 170l-15 86Z" centroide="-487336.54440172616,-222635.3045927511"></path><path class="C33" d="M-447189 -233590h0h0h0Z M-446723 -233573h0h0h0Z M-445671 -233487h0h0h0Z M-445710 -232682h0h0h0Z M-446689 -232404h0h0h0Z M-446367 -232269h0h0h0Z M-445566 -232244h0h0h0Z M-446907 -232182h0h0h0Z M-443569 -232123h0h0h0Z M-445824 -232109h0h0h0Z M-447090 -232054h0h0h0Z M-445916 -232044l-111 -186l-176 8l287 178Z M-445793 -232012h0h0h0Z M-445742 -231902h0h0h0Z M-446580 -231818h0h0h0Z M-446826 -231789h0h0h0Z M-446643 -231637h0h0h0Z M-446826 -231563h0h0h0Z M-446756 -231334h0h0h0Z M-446860 -231312h0h0h0Z M-446788 -231274h0h0h0Z M-446763 -231112h0h0h0Z M-446801 -231085h0h0h0Z M-446887 -231097h0h0h0Z M-446728 -230993h0h0h0Z M-446843 -230886h0h0h0Z M-445961 -230897h0h0h0Z M-442342 -230898l169 1l267 -139l-111 -164l331 2l7 -200l197 147l234 10l-161 -157l25 -203l237 109l198 -252l-230 -119l-226 187l-277 -159l-180 26l36 -143l-148 -87l-92 89l-470 -108l-31 163l-216 109l-242 6l-314 -372l-176 -11l111 253l-177 -1l-195 194l377 181l449 391l-26 -172l129 -49l91 191l258 78l-71 95l227 104Z M-435591 -230806h0h0h0Z M-435733 -230728h0h0h0Z M-431998 -230726h0h0h0Z M-446308 -230699h0h0h0Z M-446368 -230696h0h0h0Z M-443920 -230676h0h0h0Z M-431946 -230667h0h0h0Z M-446022 -230683h0h0h0Z M-445957 -230670h0h0h0Z M-444102 -230623h0h0h0Z M-435112 -230613h0h0h0Z M-443380 -230609h0h0h0Z M-446276 -230611h0h0h0Z M-435113 -230604h0h0h0Z M-435675 -230600h0h0h0Z M-431488 -230588h0h0h0Z M-435658 -230588v1v-1h0Z M-444052 -230594h0h0h0Z M-435658 -230587v-1v1h0Z M-435670 -230579h0h0h0Z M-443763 -230585h0h0h0Z M-435635 -230590h0h0h0Z M-446215 -230593h0h0h0Z M-443773 -230574h0h0h0Z M-443132 -230568h0h0h0Z M-444143 -230567h0h0h0Z M-446083 -230646h0h0h0Z M-443762 -230557h0h0h0Z M-445528 -230580h0h0h0Z M-435651 -230580h0h0h0Z M-444125 -230561h0h0h0Z M-443330 -230559h0h0h0Z M-444031 -230543h0h0h0Z M-435632 -230545h0h0h0Z M-443275 -230543h0h0h0Z M-443127 -230529h0h0h0Z M-444209 -230534h0h0h0Z M-435081 -230526h0h0h0Z M-443330 -230526h0h0h0Z M-445601 -230536h0h0h0Z M-435693 -230509l1 1l2 1l-3 -2Z M-435693 -230509l3 2l-2 -1l-1 -1Z M-443076 -230501h0h0h0Z M-435693 -230499l1 -3l-1 3h0Z M-445450 -230490h0h0h0Z M-443994 -230466h0h0h0Z M-435830 -230453h0h0h0Z M-444925 -230437h0h0h0Z M-435856 -230447h0h0h0Z M-435885 -230422h0h0h0Z M-435927 -230413h0h0h0Z M-441363 -230433h0h0h0Z M-444818 -230411h0h0h0Z M-443944 -230393h0h0h0Z M-442981 -230372h0h0h0Z M-443404 -230372h0h0h0Z M-443977 -230374h0h0h0Z M-433039 -230366h0h0h0Z M-441582 -230406h0h0h0Z M-441297 -230422h0h0h0Z M-445153 -230354h0h0h0Z M-435779 -230426h0h0h0Z M-442999 -230352h0h0h0Z M-431974 -230346h0h0h0Z M-443994 -230346h0h0h0Z M-442796 -230359h0h0h0Z M-444114 -230351h0h0h0Z M-443836 -230332h0h0h0Z M-442836 -230345h0h0h0Z M-431950 -230331h0h0h0Z M-431929 -230313h0h0h0Z M-432986 -230311h0h0h0Z M-443715 -230384l244 3l-74 -246l-98 166l-272 2l200 75Z M-442958 -230311h0h0h0Z M-444806 -230296h0h0h0Z M-436045 -230307h0h0h0Z M-431922 -230289h0h0h0Z M-432763 -230288h0h0h0Z M-443257 -230279h0h0h0Z M-444450 -230285h0h0h0Z M-435991 -230280l198 -181l-237 80l39 101Z M-443125 -230265h0h0h0Z M-436026 -230289h0h0h0Z M-444002 -230258h0h0h0Z M-432029 -230255h0h0h0Z M-443322 -230256h0h0h0Z M-431920 -230255h0h0h0Z M-442787 -230270h0h0h0Z M-444362 -230249h0h0h0Z M-443104 -230243h0h0h0Z M-442841 -230242h0h0h0Z M-442692 -230255h0h0h0Z M-431825 -230237h0h0h0Z M-443310 -230227h0h0h0Z M-439520 -230257h0h0h0Z M-441100 -230239h0h0h0Z M-431833 -230215h0h0h0Z M-435670 -230579l-697 74l-1469 -121l-1030 -129l-681 -122l-314 -143l-222 87l-42 150l132 61l250 267l252 -35l546 -197l143 43l-6 226l-128 92l516 -217l357 -70l524 16l591 93l809 195l469 -270Z M-439441 -230238h0h0h0Z M-443186 -230183h0h0h0Z M-442768 -230173h0h0h0Z M-443208 -230173h0h0h0Z M-444258 -230151h0h0h0Z M-444262 -230147h0h0h0Z M-444262 -230141h0h0h0Z M-442684 -230133h0h0h0Z M-443686 -230116h0h0h0Z M-443691 -230112h0h0h0Z M-443698 -230105h0h0h0Z M-443020 -230101h0h0h0Z M-443019 -230097h0h0h0Z M-443010 -230093h0h0h0Z M-443023 -230097h0h0h0Z M-443014 -230090h0h0h0Z M-443020 -230084h0h0h0Z M-443020 -230084h0h0h0Z M-443076 -230076h0h0h0Z M-443835 -230066h0h0h0Z M-439495 -230061h0h0h0Z M-444221 -230035h0h0h0Z M-444225 -230030h0h0h0Z M-444234 -230024h0h0h0Z M-439535 -230036h0h0h0Z M-436604 -229996h0h0h0Z M-436597 -229982h0h0h0Z M-440312 -230004h0h0h0Z M-444225 -229956h0h0h0Z M-443995 -229938h0h0h0Z M-443519 -229935h0h0h0Z M-444077 -229941h0h0h0Z M-444025 -229898h0h0h0Z M-439084 -229913h0h0h0Z M-439171 -229893l-178 -260l-28 155l206 105Z M-440416 -229906h0h0h0Z M-436953 -229864h0h0h0Z M-431823 -229863h0h0h0Z M-430837 -229854h0h0h0Z M-444128 -229893h0h0h0Z M-443410 -229852h0h0h0Z M-437031 -229851h0h0h0Z M-439208 -229877h0h0h0Z M-443590 -229841h0h0h0Z M-444112 -229835h0h0h0Z M-430623 -229827h0h0h0Z M-443504 -229808h0h0h0Z M-439084 -229793h0h0h0Z M-443302 -229806h0h0h0Z M-444069 -229777h0h0h0Z M-430548 -229807h0h0h0Z M-444019 -229760h0h0h0Z M-419730 -229921l-92 -124l-153 12l-74 -200l-86 237l256 238l149 -163Z M-443401 -229760h0h0h0Z M-443464 -229775h0h0h0Z M-443911 -229747h0h0h0Z M-443743 -229743h0h0h0Z M-443279 -229718h0h0h0Z M-443884 -229714h0h0h0Z M-443153 -229686h0h0h0Z M-444144 -229688h0h0h0Z M-443681 -229666h0h0h0Z M-443118 -229664h0h0h0Z M-443175 -229658h0h0h0Z M-443634 -229635h0h0h0Z M-419898 -229691h0h0h0Z M-443409 -229621h0h0h0Z M-444081 -229618h0h0h0Z M-431473 -229617h0h0h0Z M-443414 -229610h0h0h0Z M-443200 -229612h0h0h0Z M-443454 -229598h0h0h0Z M-439506 -229594h0h0h0Z M-443979 -229587h0h0h0Z M-431021 -229568h0h0h0Z M-443514 -229527h0h0h0Z M-431155 -229517h0h0h0Z M-443352 -229543h0h0h0Z M-438573 -229450h0h0h0Z M-438651 -229457h0h0h0Z M-439660 -229447h0h0h0Z M-439621 -229447h0h0h0Z M-439200 -229447h0h0h0Z M-443390 -229344h0h0h0Z M-431460 -229342h0h0h0Z M-443486 -229323h0h0h0Z M-443459 -229302h0h0h0Z M-438641 -229256h0h0h0Z M-438688 -229247l-104 -259l-305 -53l-24 213l433 99Z M-438123 -229207h0h0h0Z M-431958 -228870h0h0h0Z M-432092 -228863h0h0h0Z M-431742 -228828h0h0h0Z M-431196 -228748h0h0h0Z M-431170 -228593h0h0h0Z M-431160 -228543h0h0h0Z M-431083 -228474h0h0h0Z M-431036 -228460h0h0h0Z M-431729 -228384h0h0h0Z M-432301 -228370l-3 -147l160 -178l-177 37l-85 192l105 96Z M-431098 -228310h0h0h0Z M-431671 -228292h0h0h0Z M-432543 -228253h0h0h0Z M-432583 -228245h0h0h0Z M-432552 -228241h0h0h0Z M-431627 -228192h0h0h0Z M-430931 -228213h0h0h0Z M-431622 -228111h0h0h0Z M-431232 -228070h0h0h0Z M-431170 -228036h0h0h0Z M-431091 -228016h0h0h0Z M-431576 -227998h0h0h0Z M-431687 -227997h0h0h0Z M-431232 -227991h0h0h0Z M-431120 -227970h0h0h0Z M-431209 -227962h0h0h0Z M-431558 -227946h1h-1h0Z M-431554 -227945h0h0h0Z M-431558 -227943l-1 -2l1 2h0Z M-431549 -227941h1h-1h0Z M-431549 -227941v1v-1h1h-1Z M-431548 -227941v1v-1h0Z M-431557 -227940h-1h1h0Z M-431549 -227941l-5 -4l-3 -1h0h-1l-1 1l1 2v3h1h9h0h-1v-1Z M-431556 -227920h0h0h0Z M-431554 -227918h-1h1h0Z M-431555 -227918h1h-1h0Z M-431555 -227918v1v-1h0Z M-431556 -227917h-1h1h0Z M-431555 -227917v-1l-1 1h1Z M-431555 -227917h0h0h0Z M-431557 -227917h0h0h0Z M-431552 -227917h0h0h0Z M-431557 -227917h0h0h0Z M-431038 -227906h0h0h0Z M-431522 -227902h0h0h0Z M-431048 -227902h0h0h0Z M-431014 -227899h0h0h0Z M-431513 -227892h0h0h0Z M-431492 -227887h0h0h0Z M-430991 -227885h0h0h0Z M-431495 -227866h0h0h0Z M-431378 -227826h0h0h0Z M-431404 -227817h0h0h0Z M-431054 -227767h0h0h0Z M-431376 -227760h0h0h0Z M-431410 -227758h0h0h0Z M-431721 -227756l157 -107l-219 -156l-19 -294l-157 125l-209 17l-225 -167l-263 209l93 158l356 126l322 -100l-9 114l173 75Z M-431599 -227700h0h0h0Z M-431146 -227695h0h0h0Z M-431167 -227688h0h0h0Z M-431689 -227687h0h0h0Z M-431686 -227681h0h0h0Z M-431676 -227680h0h0h0Z M-431685 -227677h0h0h0Z M-431682 -227676h0h0h0Z M-431691 -227674h2h-2h0Z M-431678 -227674h0h0h0Z M-431686 -227673h0h0h0Z M-431686 -227673h0h0h0Z M-431682 -227672h0h0h0Z M-431689 -227674h-2h2h0Z M-431691 -227669h0h0h0Z M-431689 -227670h0h0h0Z M-431691 -227669h0h0h0Z M-431691 -227669v2v-2h0Z M-431687 -227668h0h0h0Z M-431691 -227667h0h0h0Z M-431017 -227624h0h0h0Z M-431176 -227536h0h0h0Z M-431055 -227486h0h0h0Z M-431271 -227460h0h0h0Z M-419443 -227389h0h0h0Z M-418736 -227298h0h0h0Z M-419199 -227219h0h0h0Z M-416975 -224033h0h0h0Z M-416860 -223970h0h0h0Z M-409600 -213015l-5 -599l-216 -304l-126 -51l-289 -495l-416 -450l-73 -216l127 -510l166 -275l330 -173l-125 -805l15 -603l203 -797l276 -1180l-36 -338l-128 -295l-217 -148l-633 -313l-501 -282l-96 -120l-330 -190l-620 -262l-375 -120l-2055 -545l-353 -117l-1353 -553l-327 -160l-386 -260l-582 -443l25 -273l-432 -251l-401 -329l-111 -320l-251 -69l-431 -514l-267 49l-220 -355l-125 -306l-41 -326l68 -665l108 -264l220 -104l180 -258l270 -99l158 210l175 94l165 -148l-306 -313l-146 76l-175 -144l-25 -215l-112 48l-301 -131l-156 -277l-45 -310l-296 -80l-167 -351l43 -220l186 -180l-83 -184l-268 206l-443 89l-1363 113l-1345 65l-900 5l-217 -28l-421 43l-583 6l-580 -37l-475 -103l-28 -125l-400 31l-1049 -61l-570 -55l-257 -67l-473 38h-528l-44 -64l-297 46l-296 165l-349 25l-52 125l-172 19l132 168l166 -125l73 194l-153 1l-238 337l344 308l18 202l330 269l-159 144l174 243l327 191l42 232l-57 286l-302 30l-224 108l-316 -179l-176 -176l-276 35l-228 -114l-278 -19l-54 -127l-203 -43l-399 -376l137 -461l198 -140l119 -286l287 -53l-64 -232l149 56l345 -134l-70 -317l183 -137l-378 -275l22 -81l-337 -12l-212 -129l-350 -25l-98 -119l-555 37l-553 -28l-588 -113l-437 -123l-116 -106l-225 -16l-294 -256l-70 251l-1 3l-532 417l-306 54l-192 213l-169 -100l-195 189l-447 317l-540 237l-348 -150l-119 131l131 174l-264 -21l-151 -170l-274 -101l-372 35l-294 -41l-301 -112l-236 -217l-14 -167l-244 -4l157 288l-82 112l-322 -179l50 -149l-95 -180l-276 -307l-168 -92l-458 -38l-205 -184l-51 154l-349 -186l-114 83l92 212l160 119l-296 171l-210 -52l-242 -222l-12 184l-187 -12l-304 -218l-158 200l171 197l193 1l207 294l-327 45l154 256l-357 89l-124 -150l212 -58l-270 -259l-129 170l-316 28l-127 -133l-44 -314l153 -24l-207 -147l137 -69l-114 -94l-361 219l-274 -245l-255 32l-452 -206l-403 37l-348 -124l-175 22l-162 -177l-94 -241l-50 -396l59 -114l-131 -107l-11 -164l-141 -278l134 -180l-45 -117l177 -5l409 415l275 -60l10 -264l-113 110l-536 -414l265 57l127 122l377 4l-438 -573l274 116l88 224l242 142l3 93l371 44l-166 -145l-36 -263l305 -35l97 77l208 -137l-471 -431l41 -68l-237 -290l-220 -69l5 172l-324 183l-432 -184l-199 94l-148 -56l-68 -216l-116 19l-242 244l-178 35l-10 233l-291 309l-196 -71l-86 345l-334 63l-199 233l146 419l503 220l-10 189l149 282l-83 241l176 469l84 348l-97 110l120 175l257 -21l156 135l2 164l354 235l267 -60l138 180l140 -100l517 427l85 -51l236 123l202 -100l499 365l209 52l177 -389l334 164l102 184l419 -79l637 184l209 121l133 -82l155 71l84 247l192 129l-157 30l-27 176l317 371l279 -16l-28 198l279 133l125 239l-101 188l-181 103l54 119l-368 207l-48 118l-276 -77l-154 137l-169 -110l-96 80l-497 139l-111 -270l-104 361h0l-266 56l-137 -357l-233 102l-347 -173l-201 121l-237 -370l-416 371l-144 -80l-95 100l-95 -245l-134 163l-163 -71l-217 78l-116 278l48 221l-197 84l-135 -104l51 227l-315 279l-209 260l30 213l-137 293l-224 189l-540 97l164 187l463 108l218 172l169 -100l450 -111l171 150l197 296l390 150l237 -111l332 83l480 291l235 236l17 129l229 58l394 -72l72 -136l277 201l427 -71l256 165l288 -10l26 -241l593 172l239 244l123 -67l190 198l243 45l-20 208l234 152l241 -23l39 107l321 44l129 91l222 -117l396 234l117 -30l609 287l119 122l391 23l421 166l352 190l171 -296l162 -26l117 153l372 89l101 -188l58 154l205 101l248 -190l87 20l271 300l10 -193l244 -127l524 223l34 -137l388 25l379 181l593 348l28 94l488 28l140 -134l235 105l446 -36l126 -196l202 79l-7 -116l325 156l159 -111l247 40l-42 -289l-216 -197l125 -268l157 6l43 144l161 67l306 -105l424 272l-60 214l345 131l114 -42l243 208l598 243l307 249l-30 64l937 297l478 209l550 295l706 233l133 107l1628 690l426 145l379 206l243 -48l269 174l371 115l45 232l-172 128l-194 261l-388 -70l-79 202l-216 27l144 139l-137 51l256 392l187 112l-57 79l205 94l37 228l181 14l119 198h0l217 213l-134 181l-241 96l168 309l-26 192l100 96l129 -102l167 62l-136 167l220 204l-69 213l126 73l-133 202l84 107l4 245l390 319l17 202l-144 87l80 193l-139 234l144 147l24 172l209 184l70 280l239 -21l85 234l267 246l35 206l207 -18l-45 130l-308 125l-253 175l-104 179l133 150l228 10l215 234l460 9l259 94l453 -105l92 374l407 597l-87 97l67 349l236 -32l259 182l44 133l228 19l235 -326l295 -87l51 73l271 -40l269 -156l35 -184l-95 -170l86 -171l249 20l-140 -243l79 -68l-38 -241l-149 -42l59 -192l139 -66l69 -385l-148 -413l-71 -338l105 -12l-143 -331l289 -58l-131 -157l148 -52l105 125l428 -225l304 -91l93 -101l258 76l9 -115l208 -226l346 35l137 -77l52 119l246 -39l168 -228l347 -133l145 130l443 71l605 -178l196 -217l209 -44l343 193l503 -284l127 103l186 -66l274 189l168 -25l260 91l212 -92l284 -264l157 94l189 -53l96 -351l158 60l199 -214Z" centroide="-426516.403083712,-221885.56085652873"></path></g></svg>