<svg style="stroke: black;stroke-width: 30px;fill: white;" version="1.1" xmlns="http://www.w3.org/2000/svg" xmlns:xlink="http://www.w3.org/1999/xlink" width="1024" height="1024" viewBox="-47.2982 20.1712 3.3213 2.7515"><g transform="scale(0.0001,-0.0001)"><path class="C31049" d="M-461668 -208009l-75 -348l95 -92l393 291l621 -71l114 -123l28 -284l248 52l498 -125l110 -133l188 -20l54 -433l145 70l302 6l69 -211l-403 -566l240 -236l-155 -124l-439 -528l-99 -516l257 -249l-51 -750l472 -302l487 -137l313 -383l20 -350l-75 -375l263 -104l37 -112l172 58l209 -135l378 -10l117 -242l140 -12l156 163l176 -371l-8 -651l-74 -39l157 -628l-324 -101l122 -156l-4 -168l-156 -136l-65 76l-218 -58l182 -208l-184 -164l-51 -324l205 -241l-161 -81l95 -187l199 93l-290 -324l-273 -41l-347 -183l-300 64l-171 258l-220 -195l-204 -371l27 -272l148 -159l-227 -176l-445 -94l-361 11l-225 181l8 114l-309 130l-182 -121l-182 167l-137 -53l-167 166l-12 201l-171 -31l-260 199l-197 297l-4 212l447 340l-90 68l-74 279l194 174l132 319l-416 128l-311 371l-91 237l-112 -98l-283 33l-240 -55l-178 160l-56 208l-576 -217l-122 26l-112 170l-155 -21l-55 349l205 68l356 459l196 10l158 120l539 98l-311 261l227 287l56 181l-136 78l193 110l-361 328l19 678l-158 -12l-270 190l-99 203l-404 143l-155 238l295 -44l178 89l97 217l-62 177l105 187l-72 85l-309 24l-137 150l77 67l-246 234l104 220l-93 181l-26 310l191 196l-92 324l369 -106l237 28l-3 132l267 206l99 189l-167 267l126 1l-21 216l282 142l176 201l259 131l190 -40Z" centroide="-460279.99673471664,-213735.6685742483"></path><path class="C31055" d="M-440712 -217304l-57 -297l24 -250l-145 -69l-121 -280l80 -170l-57 -393l200 -161l83 -335l215 -3l171 156l308 9l5 -179l237 -290l-130 -112l-142 -353l40 -192l-301 -4l-212 -96l-97 225l-184 145l-442 -7l-182 -319l-347 -300l-331 -188l136 -53l40 -217l-237 -5l-58 -267l196 43l108 -158l-91 -352l190 -189l-51 -262l71 -58l-99 -118l-244 -75l-100 -120l-365 -83l-26 241l-288 10l-256 -165l-427 71l-277 -201l-72 136l-394 72l-229 -58l-17 -129l-381 -333l-167 -48l-190 -222l-133 71l-176 -78l-237 111l-390 -150l-197 -296l-200 -77l126 81l-125 450l297 239l155 13l178 208l-141 66l192 118l-107 228l37 110l241 88l90 118l87 388l-85 117l-281 -70l-209 20l-65 161l-263 120l-264 -79l77 455l-202 450l14 142l-177 249l-244 145l43 138l-184 205l-83 207l-29 340l84 283l-127 173l-261 -119l-474 -411l-220 247l-43 350l-227 129l-112 69l58 211l243 118l-109 207l25 166l-134 24l40 148l-93 565l149 582l66 209l147 -2l317 168l211 37l238 -265l269 81l302 -194l182 8l325 -194l197 22l71 198l654 197l14 98l359 25l129 128l319 -7l67 225l271 182l80 179l327 -137l-11 -235l369 -216l171 -203l199 73l225 -69l630 190l-37 -134l254 -210l120 58l169 260l289 169l145 206l171 -18l-97 -303l-30 -403l251 -285l-116 -152l172 26l164 -131l46 86l395 -15l68 -170l-112 -161l89 -348Z" centroide="-444452.6031423666,-218921.6406724156"></path><path class="C31056" d="M-451028 -224899l-475 -174l-263 -417l-447 -141l-388 -189l-12 -241l-144 -108l-181 33l-391 -40l-280 -211l-390 -149l-106 21l-24 293l-226 39l-383 295l-150 -398l-122 23l-239 -205l-496 -101l-98 54l290 251l-212 247l-134 -173l-188 -50l-94 -138l-480 -134l-149 150l222 381l-40 213l-159 36l-167 -131l-230 84l-160 -195l45 -213l-166 -59l-630 133l-285 -173l-451 226l124 -260l-221 -134l155 -141l-79 -162l-489 -185l-246 26l116 270l145 157l-71 159l-218 188l100 267l-74 169l175 280l-155 146l333 557l392 -16l11 -264l297 116l269 -202l159 142l259 64l66 189l488 -201l217 -144l90 234l173 180l-88 676l224 681l78 491l209 -120l116 57l311 -159l50 -119l223 -128l191 -418l180 13l507 -131l-21 225l378 12l-34 293l330 76l130 302l127 -47l204 320l49 377l-198 51l31 330l-120 164l250 92l-63 171l138 129l274 97l413 -134l413 183l197 -7l72 -159l-104 -199l116 -188l163 -12l426 -300l330 244l211 -79l453 91l5 -508l-82 -78l114 -220l98 97l358 -275l-18 -282l86 -75l-65 -307l-333 -202l-135 -323l137 -226l-52 -132l-228 -85l-236 -233l-28 -300Z" centroide="-454246.5939675909,-224295.16289066427"></path><path class="C31047" d="M-469069 -201814l193 -117l179 165l484 -185l452 -231l-79 -78l77 -487l338 70l466 -91l208 -255l651 -321l87 128l296 -205l79 -246l246 -37l185 128l200 -194l364 -229l186 -20l248 -185l-125 -138l95 -144l69 -357l439 -257l90 -183l179 -37l14 -199l558 -81l16 235l267 93l127 193l261 25l182 -153l61 -206l289 -89l212 -187l84 142l359 223l361 -220l220 158l167 -168l269 -75l126 44l230 -156l-17 -140l-108 -241l-109 -12l-37 -235l-255 -382l-69 -191l-271 -73l-320 104l-440 -259l-129 -572l-254 -267l-190 40l-259 -131l-176 -201l-282 -142l21 -216l-126 -1l167 -267l-99 -189l-267 -206l3 -132l-237 -28l-369 106l92 -324l-191 -196l-400 86l40 114l-180 76l-453 -117l-54 -208l114 -180l263 -142l-116 -290l-447 -71l-87 -79l-376 -7l-213 -157l-124 244l-247 164l-216 20l-345 422l156 97l-26 204l164 -2l-93 207l-320 260l233 149l-143 184l-281 -58l-259 -288l-166 -21l-361 -180l-2 -221l-264 41l-197 -108l-141 224l49 350l-162 -63l-214 90l-185 224l-331 283l6 85l-240 309l-249 28l-402 631l-290 121l-36 127l-246 128l-342 87l-245 313l35 382l-152 58l41 162l-148 91l-195 475l-6 299l-111 158l-574 197l-355 193l-453 328l-34 205l107 215l-128 573l133 165l34 285l424 599l81 244l330 -28l174 -168l263 64l117 -127l7 -199l225 -217l397 106l-317 139l80 159l-58 425l390 53l236 105l291 -69l167 68l166 -77l176 199l355 46l242 -102Z" centroide="-466862.86250899854,-206004.51629538106"></path><path class="C31051" d="M-463225 -215731l122 -26l576 217l56 -208l178 -160l240 55l283 -33l112 98l91 -237l311 -371l416 -128l-132 -319l-194 -174l74 -279l90 -68l-447 -340l4 -212l197 -297l260 -199l171 31l12 -201l-210 -426l-149 -95l-247 -475l110 -181l-200 -198l-276 -75l-40 -397l-167 73l-195 -310l-207 -62l10 -367l-175 -364l177 -350l-245 -181l-91 -155l-285 -126l152 -52l201 83l425 -125l-117 -308l194 -57l35 -122l-159 -34l88 -214l-121 -356l-149 -104l23 -293l-71 -227l-221 -159l-66 385l-77 45l-164 -168l17 -145l-353 251l-236 -19l-181 146l-89 -152l-292 -39l-167 -240l17 -396l105 -69l-403 -460l40 -116l-857 273l115 235l-192 13l-50 229l-178 -65l-191 150l-246 -5l-153 28l-348 206l55 492l-142 -34l-225 262l-34 218l-222 148l179 107l-51 336l324 404l37 456l275 -47l64 234l274 74l145 140l-176 56l-80 221l-226 167l-533 -33l-188 65l27 151l514 47l-206 314l98 151l133 -12l219 147l271 -61l-14 180l-296 224l-114 351l-180 284l205 150l56 156l-192 314l-242 121l385 457l-15 120l279 130l-48 248l78 285l-61 65l76 309l446 -95l123 64l-20 195l185 110l-48 101l347 252l-62 119l126 356l169 -239l302 131l135 284l253 46l61 -272l405 -7l182 -156l386 135Z" centroide="-464140.33343664545,-219980.8159564398"></path><path class="C31052" d="M-460319 -218862l448 -237l-1 -324l210 -190l-34 -189l102 -80l335 26l211 -142l3 -503l-244 -369l304 7l85 -163l-79 -149l358 68l138 -82l255 64l-9 -187l-241 -13l167 -151l-274 -323l111 -88l-296 -220l120 -11l50 -209l143 -47l-36 -352l86 -168l-147 -324l83 -101l-59 -208l-297 -117l-236 -268l-43 -174l-151 -43l74 -187l-138 -215l85 -192l-333 -557l155 -146l-175 -280l74 -169l-100 -267l218 -188l71 -159l-145 -157l-116 -270l246 -26l489 185l79 162l-155 141l221 134l-124 260l451 -226l285 173l630 -133l166 59l125 -23l235 -307l-236 -104l-253 30l-77 -121l-373 -221l-238 -54l-82 -240l242 -163l392 180l265 -62l165 -297l15 -163l-171 -120l-13 -133l168 -161l-282 67l-132 150l-160 -130l40 -349l-239 -178l-120 249l-205 39l-248 -80l-228 -336l-179 -45l-23 299l-212 298l-263 -301l-126 2l-563 -430l-203 41l-228 -119l-132 53l-314 -28l-438 -283l-149 103l171 219l-82 334l-548 -138l-575 -199l-95 152l-282 -222l-224 102l-278 -169l-185 109l-118 226l49 360l-39 148l129 313l182 115l89 171l-249 -9l-134 144l-799 193l-45 205l-234 287l529 170l347 -16l-32 170l-244 79l-24 132l183 40l-161 223l84 131l-201 142l179 133l-33 105l-213 68l-172 190l-40 116l403 460l-105 69l-17 396l167 240l292 39l89 152l181 -146l236 19l353 -251l-17 145l164 168l77 -45l66 -385l221 159l71 227l-23 293l149 104l121 356l-88 214l159 34l-35 122l-194 57l117 308l-425 125l-201 -83l-152 52l285 126l91 155l245 181l-177 350l175 364l-10 367l207 62l195 310l167 -73l40 397l276 75l200 198l-110 181l247 475l149 95l210 426l167 -166l137 53l182 -167Z" centroide="-460998.5740608905,-224716.06133819328"></path><path class="C31053" d="M-454362 -219773l-465 -160l-73 -149l250 -188l136 -353l-71 -196l867 107l173 -261l297 -78l-91 -139l-274 -97l-138 -129l63 -171l-250 -92l120 -164l-31 -330l198 -51l-49 -377l-204 -320l-127 47l-130 -302l-330 -76l34 -293l-378 -12l21 -225l-507 131l-180 -13l-191 418l-223 128l-50 119l-311 159l-116 -57l-209 120l-78 -491l-224 -681l88 -676l-173 -180l-90 -234l-217 144l-488 201l-66 -189l-259 -64l-159 -142l-269 202l-297 -116l-11 264l-392 16l-85 192l138 215l-74 187l151 43l43 174l236 268l297 117l59 208l-83 101l147 324l-86 168l36 352l-143 47l-50 209l-120 11l296 220l-111 88l274 323l-167 151l241 13l9 187l-255 -64l-138 82l-358 -68l79 149l-85 163l-304 -7l244 369l-3 503l-211 142l-335 -26l-102 80l34 189l-210 190l1 324l-448 237l182 121l309 -130l-8 -114l225 -181l361 -11l445 94l227 176l-148 159l-27 272l204 371l220 195l171 -258l300 -64l347 183l273 41l290 324l-199 -93l-95 187l161 81l-205 241l51 324l184 164l169 -390l198 41l147 -209l229 -110l101 -137l509 -6l6 -250l164 -65l540 -63l56 -161l-117 -213l129 -157l41 -538l183 -363l278 -188l56 -184Z" centroide="-456708.9852376544,-221033.4682862815"></path><path class="C31054" d="M-448848 -218367l227 -129l43 -350l220 -247l474 411l261 119l127 -173l-84 -283l29 -340l83 -207l184 -205l-43 -138l244 -145l177 -249l-14 -142l202 -450l-77 -455l264 79l263 -120l65 -161l209 -20l281 70l85 -117l-87 -388l-90 -118l-241 -88l-37 -110l107 -228l-192 -118l141 -66l-178 -208l-155 -13l-297 -239l125 -450l-126 -81l-421 38l-164 98l-223 -170l-463 -108l-164 -187l15 -86l-271 -170l-245 82l-303 -91l-80 -209l-432 -2l-249 -220l-156 71l-470 49l-744 -268l28 300l236 233l228 85l52 132l-137 226l135 323l333 202l65 307l-86 75l18 282l-358 275l-98 -97l-114 220l82 78l-5 508l-453 -91l-211 79l-330 -244l-426 300l-163 12l-116 188l104 199l-72 159l-197 7l-413 -183l-413 134l91 139l-297 78l-173 261l-867 -107l71 196l-136 353l-250 188l73 149l465 160l206 135l209 11l505 228l5 323l-76 2l51 353l-175 267l120 137l-52 155l299 210h165l126 -228l195 53l83 -103l293 237l67 156l203 169l101 -99l16 -217l366 -366l238 -326l314 219l-80 173l67 229l-120 231l279 -26l130 127l448 -83l24 -254l223 -238l312 -29l76 -202l284 88l64 147l156 -121l161 131l231 -83Z" centroide="-449898.706697126,-220958.46358194912"></path><path class="C31048" d="M-463581 -209896l26 -310l93 -181l-104 -220l246 -234l-77 -67l137 -150l309 -24l72 -85l-105 -187l62 -177l-97 -217l-178 -89l-295 44l155 -238l404 -143l99 -203l270 -190l158 12l-19 -678l361 -328l-193 -110l136 -78l-56 -181l-227 -287l311 -261l-539 -98l-158 -120l-196 -10l-356 -459l-205 -68l55 -349l155 21l112 -170l-386 -135l-182 156l-405 7l-61 272l-253 -46l-135 -284l-302 -131l-169 239l111 156l-222 198l37 291l104 117l-4 193l-118 229l-368 43l-187 157l-253 -170l-134 25l-95 280l-126 28l-114 189l16 276l-196 29l-264 -230l-143 -203l-73 119l-242 2l-231 175l32 120l-306 -100l-279 65l-187 -43l1 -128l-198 -62l-124 -140l-252 -119l-408 -96l-306 71l-196 -85l-272 44l-46 257l116 130l-50 128l123 195l-193 89l-44 207l-142 116l-90 427l-81 208l-250 63l125 332l-309 -25l-230 238l13 321l-157 204l199 283l-291 167l32 190l-179 504l132 365l-58 124l-324 163l-81 254l-204 41l-296 389l127 288l128 291l-104 264l201 266l160 37l26 383l215 309l494 -58l144 252l245 -313l342 -87l246 -128l36 -127l290 -121l402 -631l249 -28l240 -309l-6 -85l331 -283l185 -224l214 -90l162 63l-49 -350l141 -224l197 108l264 -41l2 221l361 180l166 21l259 288l281 58l143 -184l-233 -149l320 -260l93 -207l-164 2l26 -204l-156 -97l345 -422l216 -20l247 -164l124 -244l213 157l376 7l87 79l447 71l116 290l-263 142l-114 180l54 208l453 117l180 -76l-40 -114l400 -86Z" centroide="-467332.5582805767,-211583.92079932382"></path><path class="C31050" d="M-457337 -207347l9 -237l189 -253l384 -205l-82 -369l22 -182l313 -146l269 90l175 -214l35 -335l130 -166l492 5l132 -177l23 -186l519 -472l555 -50l257 -436l122 -78l135 112l237 -40l88 -201l-85 -115l26 -292l94 -189l143 -37l102 -248l-115 -92l-321 -29l-145 -294l-230 -258l227 -119l-74 -148l-281 -255l398 -269l329 -54l219 -144l-62 -132l368 -45l15 -160l164 80l253 -53l158 133l339 43l339 -47l28 131l201 4l181 -457l390 -127l221 -151l30 -314l-120 -267l36 -219l-118 23l2 -317l76 -243l262 -426l12 -193l-97 -152l717 26l554 -126l316 142l-149 -582l93 -565l-40 -148l134 -24l-25 -166l109 -207l-243 -118l-58 -211l112 -69l-231 83l-161 -131l-156 121l-64 -147l-284 -88l-76 202l-312 29l-223 238l-24 254l-448 83l-130 -127l-279 26l120 -231l-67 -229l80 -173l-314 -219l-238 326l-366 366l-16 217l-101 99l-203 -169l-67 -156l-293 -237l-83 103l-195 -53l-126 228h-165l-299 -210l52 -155l-120 -137l175 -267l-51 -353l76 -2l-5 -323l-505 -228l-209 -11l-206 -135l-56 184l-278 188l-183 363l-41 538l-129 157l117 213l-56 161l-540 63l-164 65l-6 250l-509 6l-101 137l-229 110l-147 209l-198 -41l-169 390l-182 208l218 58l65 -76l156 136l4 168l-122 156l324 101l-157 628l74 39l8 651l-176 371l-156 -163l-140 12l-117 242l-378 10l-209 135l-172 -58l-37 112l-263 104l75 375l-20 350l-313 383l-487 137l-472 302l51 750l-257 249l99 516l439 528l155 124l-240 236l403 566l-69 211l-302 -6l-145 -70l-54 433l-188 20l-110 133l-498 125l-248 -52l-28 284l-114 123l-621 71l-393 -291l-95 92l75 348l254 267l129 572l440 259l320 -104l271 73l69 191l255 382l37 235l109 12l108 241l69 -157l398 -28l137 -169l305 -99l2 -166l216 -68l47 -120l221 -67l368 -403l326 40l250 -229Z" centroide="-455290.7908548338,-213266.22522621334"></path></g></svg>