<svg style="stroke: black;stroke-width: 30px;fill: white;" version="1.1" xmlns="http://www.w3.org/2000/svg" xmlns:xlink="http://www.w3.org/1999/xlink" width="1024" height="1024" viewBox="-51.046 14.2333 11.1892 8.6894"><g transform="scale(0.0001,-0.0001)"><path class="C3111" d="M-436188 -208570l408 -201l142 68l64 -332l227 -165l25 -118l-271 -169l7 -290l230 -180l176 -497l-232 -116l249 11l181 -589l333 -161l9 -151l274 44l181 -148l-19 -106l-309 -74l-1 -195l117 -48l44 -244l-121 -22l39 -248l-180 -258l-231 -72l-189 -150l-28 -175l-216 31l-132 -79l-156 138l-274 -143l-97 -174l-109 58l-177 -323l-268 -207l-84 82l-182 -126l-118 46l-218 -282l324 -185l39 -314l182 -65l60 -275l-322 -280l-67 -200l90 -121l-143 -282l-235 102l-239 445l-571 87l-170 -38l-199 255l-31 -91l-178 128l-376 -147l-364 54l-73 -188l-91 74l-222 -95l-69 -140l-369 24l-428 213l-54 -101l-312 -42l90 -251l503 -475l216 6l19 -158l408 -84l196 -236l-235 -35l-74 -127l-299 92l-98 -121l233 -96l79 -165l-368 -173l-297 7l-173 -171l-89 348l112 161l-68 170l-395 15l-46 -86l-335 150l115 107l-251 285l30 403l97 303l-171 18l-145 -206l-289 -169l-169 -260l-120 -58l-254 210l-18 146l-575 -202l-225 69l-199 -73l-171 203l-382 221l24 230l-187 141l-266 -84l46 -99l-271 -182l-64 -225l-322 7l-126 -127l-362 -26l-14 -98l-654 -197l-71 -198l-197 -22l-325 194l-208 -4l-276 190l-269 -81l-238 265l-211 -37l-317 -168l-147 2l-67 -210l-315 -141l-554 126l-717 -26l97 152l-12 193l-262 426l-76 243l-2 317l118 -23l-36 219l120 267l-30 314l-221 151l-390 127l-181 457l-201 -4l-134 -143l-154 142l-79 -83l-339 -43l-158 -133l-253 53l-164 -80l-15 160l-368 45l62 132l-219 144l-329 54l-398 269l281 255l74 148l-227 119l230 258l145 294l321 29l115 92l-102 248l-143 37l-94 189l-26 292l85 115l-88 201l146 138l316 97l259 -124l-78 -74l222 -211l-114 -26l-17 -187l-132 -27l59 -193l381 -106l331 30l-114 388l-162 175l270 29l380 -220l148 -273l-78 -183l97 -135l-9 -247l198 83l65 174l129 25l110 270l156 10l110 194l326 48l18 -341l296 22l97 100l131 -92l197 73l188 181l238 -172l-62 -262l207 40l18 -233l235 -102l108 195l326 -93l-58 -219l126 -102l440 -186l156 134l122 -254l201 36l56 265l149 -60l158 133l65 275l-131 237l191 146l-101 100l287 20l173 220l373 15l-22 437l-83 15l-106 261l29 242l-211 101l-42 406l59 509l-404 339l-53 175l398 -57l142 -181l90 321l313 272l130 -112l166 151l207 37l120 -159l335 -142l473 451l201 27l181 197l-3 244l85 296l241 -221l14 -171l153 -55l25 173l169 278l295 -144l233 101l53 -88l658 29l53 -94l422 -92l146 -153l287 126l59 -162l-84 -128l112 -139l223 56l242 -109l283 -40l116 -134l196 -29l255 132l7 -245l314 -404l-4 -175l391 -399l135 -62l235 107l54 295l102 -81l402 179l267 56l190 -53l157 230l211 -46l291 136l163 -105l252 35l328 164l274 -52l105 -161Z" centroide="-443204.987270574,-212226.0477574412"></path><path class="C3106" d="M-437635 -179244l-97 -182l-179 -122l-25 -174l117 -48l-237 -167l-141 -317l-155 16l-227 -123l-17 -139l-231 110l8 -202l-171 101l-373 -105l-13 -136l224 -282l-25 -174l-381 -221l18 -166l-364 -275l-23 -153l-203 -121l-578 165l-169 -244l215 -246l113 -298l541 -142l33 -263l212 -200l-137 -102l-209 84l6 -151l501 -69l-13 -155l524 -16l260 152l246 -79l-26 -211l445 -79l15 -103l-228 -132l-207 -223l-117 62l-197 -168l-33 -132l181 -14l45 -250l-85 -81l-467 4l-3 -148l-227 -38l-381 -265l-243 66l-326 -136l-178 -252l98 -128l-110 -350l408 -492l235 80l107 -120l-24 -247l64 -197l216 -100l-121 -398l147 -74l-181 -315l262 -32l-187 -259l348 -18l-212 -109l-73 -170l-240 -67l-55 -403l-187 150l-179 4l-274 185l-132 -286l-550 -344l-335 -25l-215 56l-238 -173l-177 102l-36 -133l-232 -26l-159 -165l-97 -297l-306 -128l-386 -455l-277 -9l-136 -303l-242 -265l-262 -148l-154 32l-100 -275l-252 85l-548 -98l-294 -318l-619 -284l-319 131l-210 -52l-228 95l-31 -334l-265 -303l20 -232l-162 -548l-240 -8l-206 -212l-13 -262l-197 -309l-286 -87l-26 -195l-281 -156l-169 30l-145 -113l-62 294l-405 56l-236 -50l-151 139l17 -158l-201 -183l6 -155l207 -527l-163 -182l71 -294l164 -160l-38 -159l150 -510l230 33l13 -173l-196 -232l37 -407l-194 -36l36 -225l-124 -144l-207 156l-107 -110l-645 -88l-224 -83l-146 -230l236 -224l-120 -166l-6 -365l-247 -90l-140 -308l96 -173l-28 -232l-491 1l-272 135l-102 219l-189 126l-153 301l-409 -286l-153 88l-180 -53l-355 239l-75 235l-344 133l-125 -97l-139 118l-242 -13l-344 88l11 -311l300 -163l149 -252l191 -68l29 -264l237 -233l-6 -102l317 -264l-226 -402l154 -156l134 -383l-207 -67l-7 -185l-302 -4l-70 111l-274 100l39 -201l166 -313l-127 -97l-42 -201l-357 181l-174 -65l-181 95l-16 137l-369 131l-231 -73l-204 182l79 406l-159 63l-87 304l-137 179l-237 90l-241 -105l7 232l-150 77l-180 324l-163 -61l-54 124l117 161l-304 -43l-67 228l-222 -75l92 125l-180 382l-274 227l167 379l-165 178l-303 111l-111 263l-138 99l24 175l-165 87l-348 399l40 145l-137 41l52 132l-16 439l-96 91l83 170l-117 49l40 178l135 79l147 420l300 484l-148 208l5 334l133 54l-22 326l114 325l124 35l3 246l259 284l-61 65l117 295l142 72l101 260l-41 317l144 166l-71 69l197 139l116 197l37 348l132 12l10 183l130 226l41 323l282 143l-38 256l161 185l-149 183l151 272l135 39l-62 135l250 417l-19 357l216 -30l-12 277l90 180l-36 281l-382 -47l-204 179l84 198l26 341l224 64l60 212l233 141l61 373l-41 202l218 361l-62 494l-179 76l47 174l-99 156l18 283l132 100l-16 245l187 66l-39 131l239 86l61 186l130 1l33 180l433 206l181 173l593 -75l129 79l245 -30l264 265l118 28l116 199l183 106l281 404l278 88l208 -111l175 358l209 265l-35 243l-177 58l116 193l503 -152l49 342l-254 325l287 273l-18 207l-166 219l196 301l214 36l410 234l178 -180l-7 -144l251 -49l541 -391l-44 -316l177 -229l378 -156l51 -78l256 43l545 -205l98 42l263 -325l232 9l79 -98l144 77l130 -191l397 -20l159 125l90 291l169 235l191 146l169 -160l263 289l245 35l173 341l-75 128l252 225l144 -75l301 441l82 -250l-107 -90l173 -158l-117 -521l123 -97l350 -42l203 -129l263 80l173 -51l52 378l174 181l25 261l101 160l51 426l355 219l510 55l-50 356l9 462l159 81l-108 75l129 372l97 102l-148 182l47 300l-64 134l91 208l210 -105l803 396l234 -43l154 238l280 183l22 216l-121 153l207 104l97 350l-120 256l243 629l-54 140l289 -138l158 -170l4 -134l377 -282l17 -202l129 -10l135 -169l165 -50l63 -148l271 -39l339 -462l65 -254l-97 -44l97 -196l-129 -51l128 -466l-135 -183l77 -146l280 -185l-47 -176l265 -261l29 -281l246 -203l119 -354l293 -120l113 -234Z" centroide="-449223.4988874955,-188284.6691745729"></path><path class="C3103" d="M-399147 -159999l-209 -238l135 -49l383 -373l69 -264l201 -215l-274 -310l-127 32l140 -221l-4 -309l-151 -67l-373 -425l156 -199l35 -201l-160 2l-216 -164l-124 -272l-117 161l-117 -10l-55 -185l-292 -259l-77 -354l-130 -301l-164 -93l-39 -262l-182 -64l-194 269l-373 -597l-297 -263l172 -416l-47 -148l-551 68l-212 147l-262 -164l-151 9l-122 -272l-106 -518l-147 -230l99 -282l-67 -296l-261 -464l-84 -47l194 -165l557 51l223 -500l-192 -146l-156 -408l-211 89l-288 -158l-172 87l-161 247l-132 -119l-219 -20l-158 -110l-179 121l-129 296l-197 207l-202 -29l-500 389l-129 -6l-400 199l-392 -62l-205 -111l-224 -342l-366 -87l-472 226l-440 -132l-77 -175l-197 -137l-208 -23l-437 596l-299 -92l-198 -205l-21 -123l-218 -201l-10 -306l-350 -311l-165 124l-217 -86l-182 -336l-381 156l-272 -204l-176 -321l-186 -19l58 -161l-298 -108l-84 -117l-160 38l-49 -122l-449 -22l-206 156l-197 -62l-119 -205l-153 1l-14 -451l-152 -226l196 -13l-173 -188l-39 -353l117 -224l-93 -44l57 -229l144 -113l43 -299l-70 -383l-290 -281l-131 450l-472 -49l-44 -185l-243 -82l-768 258l-285 255l-550 86l-104 145l-286 185l-325 -29l-163 -155l-10 -257l-187 -120l-158 -482l-208 -462l-133 -46l-89 -351l151 -136l-295 -223l36 -103l-223 -125l-80 -165l-394 -165l-227 31l-188 -185l-194 2l-102 -109l41 -202l-133 -2l-32 -172l-135 -72l-517 -523l-200 228l-304 145l-274 -59l-351 124l-237 238l55 220l-127 332l-104 5l-148 347l-57 291l-209 96l-275 -174l2 -260l-408 -467l75 -227l-355 -412l255 -64l129 -154l-75 -336l229 -263l-67 -165l172 -109l116 -319l-78 -201l59 -142l-219 45l-304 -219l-221 82l-366 -53l-104 78l-214 -48l-161 158l-117 -135l91 -153l-138 -173l-187 181l-244 -183l-360 1l32 -232l-151 -250l45 -85l-140 -225l57 -309l-142 -130l-169 18l-86 -283l-117 154l-271 -18l-69 -381l-311 -12l-97 -257l-280 -264l-281 -89l-273 -189l-97 -244l-213 12l-57 99l-250 -64l-96 63l-282 -231l-259 117l-207 -8l-181 -298l-87 4l-145 -26l-408 187l-221 -57l-210 -147l-28 -239l-217 21l-151 243l-246 228l-42 146l-420 194l-128 -311l-448 36l-52 -274l-461 -555l-11 -230l-149 -164l-248 64l-155 155l199 -446l-118 -292l-241 -32l-116 217l-58 -184l107 -248l-236 190l-186 -53l-168 -402l-196 -50l-53 130l-548 196l-212 -88l-169 146l-207 -228l56 -158l-235 -393l-243 -92l56 -149l-156 -88l-170 -356l-189 -126l-209 72l-111 -122l-275 -674l237 -317l311 -301l17 -96l300 -87l235 -983l-337 -143l-315 72l-240 235l-505 230l-158 -80l-259 205l-49 -87l-438 65l-71 246l-137 12l-31 -154l-136 -14l-110 176l-197 101l-280 -350l12 -129l-445 -127l-309 124l-233 284l-173 21l-661 -223l72 -169l-235 -80l-408 492l110 350l-98 128l178 252l326 136l243 -66l381 265l227 38l3 148l467 -4l85 81l-45 250l-181 14l33 132l197 168l117 -62l207 223l228 132l-15 103l-445 79l26 211l-246 79l-260 -152l-524 16l13 155l-501 69l-6 151l209 -84l137 102l-212 200l-33 263l-541 142l-113 298l-215 246l169 244l578 -165l203 121l23 153l364 275l-18 166l381 221l25 174l-224 282l13 136l373 105l171 -101l-8 202l231 -110l17 139l227 123l155 -16l141 317l237 167l-117 48l25 174l179 122l97 182l125 192l29 253l168 -56l350 87l212 203l-98 91l84 171l310 307l133 272l154 30l138 277l-27 300l-91 122l243 88l23 171l-145 30l-91 393l437 201l-124 293l164 158l-82 83l240 179l455 -196l-20 149l-209 176l139 -19l150 237l-8 -227l142 -172l181 38l56 -151l149 2l11 176l291 160l83 -128l255 -142l24 85l-188 223l257 -38l143 252l58 -137l310 -54l59 104l-237 204l393 166l131 237l-141 110l58 225l142 163l-23 125l448 -440h0l50 178l145 -50l216 98l-46 415l-275 185l112 271l305 105l-36 152l200 2l396 -123l-21 139l230 21l251 305l314 506l279 207l200 -76l174 196l34 404l148 280l303 156l148 495l152 -128l71 133l345 -157l-12 87l347 52l129 168l256 54l-41 180l119 228l102 -28l123 207l-121 133l191 35l-21 156l164 202l-130 222l280 149l-90 137l24 271l229 134l312 76l204 285l-17 218l186 -86l227 110l108 259l537 -22l149 245l414 204l262 187l127 -28l147 167l88 -67l394 217l-244 140l-15 370l-145 83l-36 300l-172 269l-61 357l219 -74l585 290l590 -250l255 -30l353 268l173 -87l236 19l282 136l174 -175l309 110l113 147l222 3l182 328l45 333l156 59l503 38l139 -72l257 16l-24 -134l399 -56l120 163l398 178l52 182l-183 409l-215 271l198 237l133 264l-8 142l336 385l331 60l210 212l242 -24l-146 -136l266 -30l93 -143l501 52l257 185l-41 230l114 316l-323 23l99 190l-37 287l99 195l383 173l8 114l287 259l-12 170l221 96l46 187l194 345l259 25l328 -109l32 141l156 59l-94 103l302 223l351 -252l197 138l310 339l127 5l38 214l381 87l214 483l-28 136l482 26l285 -62l161 94l220 4l156 -118l572 -231l210 290l234 20l194 211l303 -39l122 100h302l280 257l149 397l488 -125l118 -309l236 -22l377 115l119 343l103 19l388 -338l-57 -121l183 -218l261 93l-23 207l117 92l316 75l192 -324l193 -71l245 -234l115 120l250 -252l72 -274l247 -39l42 -268l229 64l238 -24l-10 148l129 158l222 -88l227 225l290 -254l74 -271l502 -173l182 100l195 -112l96 60l520 8l130 86l314 50l72 -236l239 -351l74 48l265 -106l14 -419l83 107l269 -86l323 -1l123 111l50 -269l84 -21l50 -330l209 -32l17 -115l304 -102l92 -178l244 42l164 -68l59 124l429 -79Z" centroide="-419093.44928344944,-169658.1138200029"></path><path class="C3107" d="M-428668 -181230l-224 -359l-404 -230l-158 -529l200 -120l33 -337l102 -96l262 142l199 -229l-60 -294l80 -238l-50 -120l-429 -127l-136 102l-60 -136l-147 63l-234 -132l-146 89l-199 -169l-104 50l-188 -152l-151 83l-240 -21l-68 110l-129 -216l-191 -79l76 -170l13 -341l-193 -86l-447 -36l56 -231l-84 -200l175 -166l-8 -128l-289 -193l-99 -294l-241 43l109 -238l-109 -395l38 -335l258 -176l-434 -187l13 -84l-189 -328l333 1l77 -163l-24 -522l84 -199l-92 -107l406 -549l-45 -182l157 -268l-274 -131l-111 109l-242 -87l-9 -228l-242 -147l131 -222l-135 -84l-23 -181l162 -153l-293 -126l-304 6l222 -189l-87 -126l228 -131l196 103l106 -100l317 51l99 -48l218 263l403 14l40 -109l206 147l196 485l339 -88l85 -152l375 -181l70 -227l165 -61l245 -217l55 168l198 233l198 22l319 -125l238 -208l165 18l153 -198l429 106l13 -157l-163 -53l-46 -165l178 -132l3 -157l285 -85l68 -337l-45 -230l170 -388l-7 -114l-261 -418l-254 -286l-408 -64l-534 -164l-159 -351l68 -203l-286 -7l-30 -408l-330 -99l-313 67l-32 273l-204 219l-89 320l-351 213l-105 -19l13 -320l-88 -109l197 -486l-15 -471l220 49l173 -193l48 -361l-38 -221l213 -1l2 -246l140 -96l4 -262l192 -175l221 164l148 -270l49 -251l185 171l65 -136l324 102l-84 205l300 -59l294 99l-121 -419l91 -101l-30 -209l288 -104l219 122l166 -101l157 337l184 16l96 -206l238 20l101 -140l459 25l99 -91l241 -13l86 -101l261 50l184 -52l162 155l235 96l63 234l77 -145l-231 -203l-89 -289l-158 -225l-292 -243l5 -153l-383 -242l-473 -173l42 -359l-298 -311l-307 -39l-252 -182l-189 156l-80 -228l-184 24l-38 134l-200 -215l-100 79l-413 70l-353 -224l-140 37l-147 -135l-251 114l-327 -205l-41 -375l-319 -464l-306 -241l-273 -83l-107 -205l-311 193l-364 -45l-186 110l-118 -108l30 -287l135 -264l-45 -183l-197 -177l-116 -204l105 -128l-61 -121l307 -8l141 -261l-256 -52l-50 -241l102 -69l-151 -233l246 -97l192 -192l-3 -197l489 166l196 -113l38 -125l-168 -82l-106 -182l-496 -187l-378 -94l-155 -146l-137 6l-543 -235l-65 256l-436 279l-324 -312l-301 -65l-40 -174l-362 21l6 -181l-140 -163l-103 34l-59 -199l-174 31l84 -273l-163 -98l224 -267l37 -234l-153 -89l110 -237l-488 -237l-71 130l-20 -345l-334 -72l-42 108l-245 -9l-104 -413l-163 -234l-155 -88l-86 -241l-113 -20l-105 161l-274 52l-328 -164l-252 -35l-163 105l-291 -136l-211 46l-157 -230l-190 53l-267 -56l-402 -179l-102 81l-54 -295l-235 -107l-135 62l-391 399l4 175l-314 404l-7 245l-255 -132l-196 29l-116 134l-283 40l-242 109l-223 -56l-112 139l84 128l-59 162l-287 -126l-146 153l-422 92l-53 94l-658 -29l-53 88l-233 -101l-295 144l-169 -278l-25 -173l-153 55l-14 171l-241 221l39 153l261 137l-116 162l448 332l9 261l404 -61l103 194l-247 261l-42 224l-111 47l206 378l-572 240l92 149l-216 212l-27 182l-493 -197l-162 37l-226 -74l-484 -377l-268 100l-329 199l-188 369l-176 160l-30 251l-137 94l-113 315l78 166l193 -5l85 216l285 14l136 195l148 3l-61 509l178 159l107 240l2 214l384 -10l164 137l206 -110l235 173l-300 428l-13 245l-205 35l-103 442l82 199l-169 157l-7 160l-243 134l-288 -75l-70 123l-223 62l-216 207l-214 40l-170 405l-146 -12l-127 224l-233 -160l-221 7l-111 -122l-414 344l-10 581l113 146l-80 220l-391 62l-11 227l-278 69l-199 188l-79 -75l-238 39l-169 189l-297 98l-13 173l-230 -33l-150 510l38 159l-164 160l-71 294l163 182l-207 527l-6 155l201 183l-17 158l151 -139l236 50l405 -56l62 -294l145 113l169 -30l281 156l26 195l286 87l197 309l13 262l206 212l240 8l162 548l-20 232l265 303l31 334l228 -95l210 52l319 -131l619 284l294 318l548 98l252 -85l100 275l154 -32l262 148l242 265l136 303l277 9l386 455l306 128l97 297l159 165l232 26l36 133l177 -102l238 173l215 -56l335 25l550 344l132 286l274 -185l179 -4l187 -150l55 403l240 67l73 170l212 109l-348 18l187 259l-262 32l181 315l-147 74l121 398l-216 100l-64 197l24 247l-107 120l-72 169l661 223l173 -21l233 -284l309 -124l445 127l-12 129l280 350l197 -101l110 -176l136 14l31 154l137 -12l71 -246l438 -65l49 87l259 -205l158 80l505 -230l240 -235l315 -72l337 143l-235 983l-300 87l-17 96l-311 301l-237 317l275 674l111 122l209 -72l189 126l170 356l156 88l-56 149l243 92l235 393l-56 158l207 228l169 -146l212 88l548 -196l53 -130l196 50l168 402l186 53l236 -190l-107 248l58 184l116 -217l241 32l118 292l-199 446l155 -155l248 -64l149 164l11 230l461 555l52 274l448 -36l128 311l420 -194l42 -146l246 -228l151 -243l217 -21l28 239l210 147l221 57l408 -187l145 26Z" centroide="-437506.76025465573,-196530.47993731845"></path><path class="C3101" d="M-460375 -148746l337 -276l-44 -175l124 -77l298 -382l-88 -390l-2 -322l-370 -354l-164 -419l-153 -40l-40 -456l-310 -118l-189 -171l-171 17l-18 -139l177 -119l65 -312l153 -167l244 55l-29 86l170 196l113 307l428 43l127 421l158 132l372 73l466 -255l372 215l96 210l855 -40l7 -144l-293 -450l141 -284l351 -334l208 3l212 129l148 -64l254 59l424 348l-135 -409l-256 -234l-403 -501l-204 -117l-241 -23l83 -169l-327 -44l-9 -90l-333 -151l-411 -372l295 -247l249 195l174 -164l257 -116l141 103l467 112l608 -260l144 -710l-197 -234l209 -432l-70 -366l83 -149l-70 -249l87 -195l208 -166l-121 -57l-268 -374l-230 -158l-55 -134l-320 -264l-213 -334l-430 -424l-139 -430l-217 -194l-284 -456l-95 -341l-88 -527l-443 -297l-129 26l-300 -198l-189 88l101 197l-344 -99l-117 256l146 -110l33 148l-159 208l-420 247l-127 -209l-364 -102l-44 -362l-144 -489l-233 -377l-44 -418l-164 -173l-342 -167l-185 107l-126 -64l-319 10l-183 93l-155 -71l120 -300l-211 -177l-248 -75l-116 -272l102 -131l415 -95l233 45l125 -222l218 -41l172 -134l345 -15l113 104l192 -10l238 -251l552 158l297 -200l95 113l154 -94l68 206l238 53l137 -288l-38 -114l177 -328l-89 -266l-196 -222l116 -466l-419 -140l55 -168l-137 -50l-212 -459l-186 21l-161 -174l91 -44l22 -254l131 -273l328 -8l148 -246l228 106l324 60l36 -260l270 -353l51 -514l214 -144l292 -15l75 -84l169 85l38 -248l181 5l54 -183l290 -241l246 149l258 -69l179 101l331 47l276 -156l-47 -138l178 -108l154 -260l219 60l222 -37l153 -217l18 -205l-120 -190l88 -131l-47 -221l-306 51l-196 -139l1 -115l183 -27l-97 -217l202 52l110 -86l-81 -149l283 -29l99 81l180 -137l253 28l121 -133l-116 -126l-60 -245l-330 -270l148 -216l-221 -198l-32 -288l-133 -62l48 -646l-245 -239l17 -83l-337 -269l158 -359l287 -44l161 -327l585 -337l161 42l422 -371l19 -303l-98 -170l100 -115l-258 -67l-264 39l-142 -201v-150l168 -201l171 -82l113 -220l-115 -142l33 -237l-285 -266l-4 -198l123 -35l116 -279l-365 -72l55 -202l-183 -220l143 -318l-140 -150l-41 -240l208 11l25 -136l292 121l294 31l379 -45l123 -327l474 -229l152 -232l187 -88l154 177l174 -6l131 -180l121 67l166 -219l18 -207l-287 -273l254 -325l-49 -342l-503 152l-116 -193l177 -58l35 -243l-209 -265l-175 -358l-208 111l-278 -88l-281 -404l-183 -106l-116 -199l-118 -28l-264 -265l-245 30l-129 -79l-593 75l-181 -173l-433 -206l-33 -180l-130 -1l-61 -186l-239 -86l39 -131l-187 -66l16 -245l-132 -100l-18 -283l-318 -105l-275 42l-190 -191l-172 171l-263 101l-67 131l-325 -171l137 -201l-128 -156l36 -182l-141 -165l64 -144l-295 -264l-227 20l-139 149l-267 25l-141 126l-207 -58l-140 107l-155 273l-173 -40l-159 -262l-368 275l-254 -61l-7 119l-401 -54l-55 183l-163 -80l-137 114l-680 -235l34 -170l-164 33l70 132l-208 112l-115 184l-121 -401l-203 75l-318 -180l-58 -149l-264 -248l-177 306l23 212l-77 184l-195 134l-391 -14l-231 115l-19 129l-210 130l-436 71l-441 243l-46 119l-233 152l-177 -38l-76 198l-143 -71l-336 155l-283 218l94 142l-314 -11l-73 116l-106 -134l-58 234l-111 -137l-147 386l-212 -43l-80 157l-298 -187l-160 122l-227 26l-333 256l-113 -62l-207 192l-161 344l18 295l-86 40l-327 -276l-155 14l-96 312l-345 -189l-524 121l42 143l-93 269l-107 68l151 326l-135 343l-111 -11l-115 264l87 214l-224 -127l-135 37l-42 319l-179 126l198 724l-215 -4l-118 -242l-171 -71l-190 -303l-335 -131l-93 44l-183 -241l13 -152l-179 138l39 177l-146 49l-114 200l90 212l-214 145l-89 304l56 47l-209 275l57 152l-193 400l243 346l-57 88l217 209l-100 222l249 178l64 285l158 150l257 89l-114 211l131 154l25 274l-235 389l-174 130l-142 273l-550 77l-255 107l-168 -100l-496 -103l-91 212l-156 -146l-111 109l10 301l-117 246l-260 60l141 177l21 302l-139 188l234 121l94 355l-61 150l245 -240l227 -63l65 122l160 -46l-135 176l172 129l183 254l-148 161l172 67l-52 99l234 170l124 -72l12 218l351 316l-123 89l106 211l180 12l64 169l182 -104l162 194l104 -46l8 291l172 162l166 1l4 168l159 -80l225 216l183 -15l241 222l129 205l156 70l-63 102l186 302l-321 149l13 232l-174 86l144 122l-197 177l-174 -78l38 247l-145 100l18 362l117 126l-265 220l35 252l-137 46l-50 202l143 290l-241 253v153l-155 307l-160 -51l-105 265l-285 170l-23 130l-144 -56l-219 201l-218 -118l-7 213l-95 -93l-184 305l-392 176l-32 234l-124 123l53 368l275 341l1 400l235 183l252 290l255 402l21 319l229 256l46 236l-130 240l44 298l-131 77l32 170l-104 133l138 45l69 349l202 62l30 379l-17 140l132 212l221 81l207 -122l346 49l116 268l227 45l338 480l198 7l261 -247l285 9l217 192l709 148l1595 383l180 65l13 199l-177 347l101 374l-134 329l-12 257l-147 140l-133 329l9 634l-340 127l-82 125l-207 31l-284 267l19 452l118 350l20 401l185 315l625 384l-192 95l207 169l121 202l-378 411l-157 32l-21 470l-170 -28l-192 -170l-133 254l27 190l242 524l257 457l-87 173l-290 217l80 245l539 287l73 101l363 -5l347 -76l634 -220l408 -183l252 -229l310 -80l480 55l455 277l181 -50l113 91l-181 385l-102 85l98 379l-198 157l-57 262l250 743l-104 209l-266 81l-53 388l206 147l-9 156l339 148l91 352l334 -64l37 -203l167 -19l235 -243l193 -44l389 -351l107 12l328 -203l-28 -332l245 -103l-177 -252l-12 -172l255 -97l70 -180l268 -19l278 78l78 -195l245 33l233 -110l152 184l-50 226l277 -200l197 79l87 -165l222 7l88 315l120 -49l188 315l110 36Z" centroide="-463954.75108152954,-168816.21011492735"></path><path class="C3102" d="M-437831 -143392l-371 -526l-117 -512l-429 -815l-37 -432l-87 -174l124 -112l40 -245l-127 -317l243 -217l124 21l480 -153l356 -52l77 -82l292 27l143 -183l-97 -104l258 29l238 -60l152 -158l419 -141l288 98l125 -151l321 -140l103 -361l219 90l-17 97l348 48l76 123l-125 116l184 20l16 196l264 232l182 -12l439 251l186 11l429 283l131 -63l531 195l374 -18l327 73l235 -153l240 7l359 -177l76 -149l159 173l109 -97l188 78l274 -188l336 33l385 -97l15 -124l469 -464l481 -292l71 -117l398 -296l418 -104l64 -200l239 -179l97 64l209 -232l129 -9l535 -418l238 205l170 -70l249 -306l259 -43l31 -109l421 -228l136 -168l324 -36l6 -407l496 -160l215 37l169 -246l199 194l252 -239l327 -105l152 -112l148 152l240 97l69 -61l334 60l95 137l181 -119l38 -204l266 -165l401 -518l115 108l786 169l412 -168l209 11l42 116l313 111l212 210l33 144l242 -4l476 158l3013 -2716l1430 -1276l252 -2444l11 13l28 -136l-214 -483l-381 -87l-38 -214l-127 -5l-310 -339l-197 -138l-351 252l-302 -223l94 -103l-156 -59l-32 -141l-328 109l-259 -25l-194 -345l-46 -187l-221 -96l12 -170l-287 -259l-8 -114l-383 -173l-99 -195l37 -287l-99 -190l323 -23l-114 -316l41 -230l-257 -185l-501 -52l-93 143l-266 30l146 136l-242 24l-210 -212l-331 -60l-336 -385l8 -142l-133 -264l-198 -237l215 -271l183 -409l-52 -182l-398 -178l-120 -163l-399 56l24 134l-257 -16l-139 72l-503 -38l-156 -59l-45 -333l-182 -328l-222 -3l-113 -147l-309 -110l-174 175l-282 -136l-236 -19l-173 87l-353 -268l-255 30l-590 250l-585 -290l-219 74l61 -357l172 -269l36 -300l145 -83l15 -370l244 -140l-394 -217l-88 67l-147 -167l-127 28l-262 -187l-414 -204l-149 -245l-537 22l-108 -259l-227 -110l-186 86l17 -218l-204 -285l-312 -76l-229 -134l-24 -271l90 -137l-280 -149l130 -222l-164 -202l21 -156l-191 -35l121 -133l-123 -207l-102 28l-119 -228l41 -180l-256 -54l-129 -168l-347 -52l12 -87l-345 157l-71 -133l-152 128l-148 -495l-303 -156l-148 -280l-34 -404l-174 -196l-200 76l-279 -207l-314 -506l-251 -305l-230 -21l21 -139l-396 123l-200 -2l36 -152l-305 -105l-112 -271l275 -185l46 -415l-216 -98l-145 50l-50 -178h0l-448 440l23 -125l-142 -163l-58 -225l141 -110l-131 -237l-393 -166l237 -204l-59 -104l-310 54l-58 137l-143 -252l-257 38l188 -223l-24 -85l-255 142l-83 128l-291 -160l-11 -176l-149 -2l-56 151l-181 -38l-142 172l8 227l-150 -237l-139 19l209 -176l20 -149l-455 196l-240 -179l82 -83l-164 -158l124 -293l-437 -201l91 -393l145 -30l-23 -171l-243 -88l91 -122l27 -300l-138 -277l-154 -30l-133 -272l-310 -307l-84 -171l98 -91l-212 -203l-350 -87l-168 56l-29 -253l-125 -192l-113 234l-293 120l-119 354l-246 203l-29 281l-265 261l47 176l-280 185l-77 146l135 183l-128 466l129 51l-97 196l97 44l-65 254l-339 462l-271 39l-63 148l-165 50l-135 169l-129 10l-17 202l-377 282l-4 134l-158 170l-289 138l54 -140l-243 -629l120 -256l-97 -350l-207 -104l121 -153l-22 -216l-280 -183l-154 -238l-234 43l-803 -396l-210 105l-91 -208l64 -134l-47 -300l148 -182l-97 -102l-129 -372l108 -75l-159 -81l-9 -462l50 -356l-510 -55l-355 -219l-51 -426l-101 -160l-25 -261l-174 -181l-52 -378l-173 51l-263 -80l-203 129l-350 42l-123 97l117 521l-173 158l107 90l-82 250l-301 -441l-144 75l-252 -225l75 -128l-173 -341l-245 -35l-263 -289l-169 160l-191 -146l-169 -235l-90 -291l-159 -125l-397 20l-130 191l-144 -77l-79 98l-232 -9l-263 325l-98 -42l-545 205l-256 -43l-51 78l-378 156l-177 229l44 316l-541 391l-251 49l7 144l-178 180l-410 -234l-214 -36l-196 -301l-121 -67l-131 180l-174 6l-154 -177l-187 88l-152 232l-474 229l-123 327l-379 45l-294 -31l-292 -121l-25 136l-208 -11l41 240l140 150l-143 318l183 220l-55 202l365 72l-116 279l-123 35l4 198l285 266l-33 237l115 142l-113 220l-171 82l-168 201v150l142 201l264 -39l258 67l-100 115l98 170l-19 303l-422 371l-161 -42l-585 337l-161 327l-287 44l-158 359l337 269l-17 83l245 239l-48 646l133 62l32 288l221 198l-148 216l330 270l60 245l116 126l-121 133l-253 -28l-180 137l-99 -81l-283 29l81 149l-110 86l-202 -52l97 217l-183 27l-1 115l196 139l306 -51l47 221l-88 131l120 190l-18 205l-153 217l-222 37l-219 -60l-154 260l-178 108l47 138l-276 156l-331 -47l-179 -101l-258 69l-246 -149l-290 241l-54 183l-181 -5l-38 248l-169 -85l-75 84l-292 15l-214 144l-51 514l-270 353l-36 260l-324 -60l-228 -106l-148 246l-328 8l-131 273l-22 254l-91 44l161 174l186 -21l212 459l137 50l-55 168l419 140l-116 466l196 222l89 266l-177 328l38 114l-137 288l-238 -53l-68 -206l-154 94l-95 -113l-297 200l-552 -158l-238 251l-192 10l-113 -104l-345 15l-172 134l-218 41l-125 222l-233 -45l-415 95l-102 131l116 272l248 75l211 177l-120 300l155 71l183 -93l319 -10l126 64l185 -107l342 167l164 173l44 418l233 377l144 489l44 362l364 102l127 209l420 -247l159 -208l-33 -148l-146 110l117 -256l344 99l-101 -197l189 -88l300 198l129 -26l443 297l88 527l95 341l284 456l217 194l139 430l430 424l213 334l320 264l55 134l230 158l268 374l121 57l-208 166l-87 195l70 249l-83 149l70 366l-209 432l197 234l-144 710l-608 260l-467 -112l-141 -103l-257 116l-174 164l-249 -195l-295 247l411 372l333 151l9 90l327 44l-83 169l241 23l204 117l403 501l256 234l135 409l-424 -348l-254 -59l-148 64l-212 -129l-208 -3l-351 334l-141 284l293 450l-7 144l182 81l31 166l214 27l240 151l173 293l-20 201l332 71l312 458l268 200l-1 107l306 67l155 -154l223 72l83 -144l191 104l130 -44l227 321l250 -8l414 330l66 197l442 182l164 242l160 -41l-31 143l143 66l157 220l168 30l127 208l237 210l313 34l23 67l357 -128l405 -55l307 221l109 314l138 190l446 126l148 222l730 323l-16 101l404 99l210 464l238 76l-107 213l116 48l-98 134l225 -33l164 153l449 161l366 278l116 -58l147 330l273 -4l4 214l254 62l227 241l116 -27l330 268l234 8l22 88l297 91l226 -60l245 179l249 79l102 162l169 51l222 11l341 113l149 197l241 91l141 -129l303 66l258 -49l56 109l226 -43l12 116l156 -211l362 -144l51 112l227 -65l49 -179l251 229l104 -148l144 50l94 -123l346 -10l323 149l367 -67l75 -170l157 11l348 -151l92 69l214 -137l261 37l69 -131l123 101l524 -281Z" centroide="-439741.1951861607,-160957.17157451695"></path><path class="C3109" d="M-449478 -196889l297 -98l169 -189l238 -39l79 75l199 -188l278 -69l11 -227l391 -62l80 -220l-113 -146l10 -581l414 -344l111 122l221 -7l233 160l127 -224l146 12l170 -405l214 -40l216 -207l223 -62l70 -123l288 75l243 -134l7 -160l169 -157l-82 -199l103 -442l205 -35l13 -245l300 -428l-235 -173l-206 110l-164 -137l-384 10l-2 -214l-107 -240l-178 -159l61 -509l-148 -3l-136 -195l-285 -14l-85 -216l-193 5l-78 -166l113 -315l137 -94l30 -251l176 -160l188 -369l329 -199l268 -100l484 377l226 74l162 -37l493 197l27 -182l216 -212l-92 -149l572 -240l-206 -378l111 -47l42 -224l247 -261l-103 -194l-404 61l-9 -261l-448 -332l116 -162l-261 -137l-39 -153l-85 -296l3 -244l-181 -197l-201 -27l-473 -451l-335 142l-120 159l-207 -37l-166 -151l-130 112l-313 -272l-90 -321l-142 181l-398 57l53 -175l404 -339l-59 -509l42 -406l211 -101l-29 -242l106 -261l83 -15l22 -437l-373 -15l-173 -220l-287 -20l101 -100l-191 -146l131 -237l-65 -275l-158 -133l-149 60l-56 -265l-201 -36l-122 254l-156 -134l-440 186l-126 102l58 219l-326 93l-108 -195l-235 102l-18 233l-207 -40l62 262l-238 172l-188 -181l-197 -73l-131 92l-97 -100l-296 -22l-18 341l-326 -48l-110 -194l-156 -10l-110 -270l-129 -25l-65 -174l-198 -83l9 247l-97 135l78 183l-148 273l-380 220l-270 -29l162 -175l114 -388l-331 -30l-381 106l-59 193l132 27l17 187l114 26l-222 211l78 74l-259 124l-316 -97l-146 -138l-231 41l-141 -113l-122 78l-257 436l-555 50l-519 472l-23 186l-132 177l-492 -5l-130 166l-35 335l-175 214l-269 -90l-313 146l-22 182l82 369l-384 205l-189 253l-9 237l-250 229l-326 -40l-368 403l-221 67l-32 114l-231 74l-2 166l-305 99l-137 169l-398 28l-52 297l-230 156l-126 -44l-269 75l-167 168l-220 -158l-361 220l-359 -223l-84 -142l-212 187l-289 89l-61 206l-182 153l-261 -25l-127 -193l-267 -93l-16 -235l-558 81l-14 199l-179 37l-90 183l-439 257l-69 357l-95 144l125 138l-248 185l-186 20l-370 234l-194 189l-185 -128l-246 37l-79 246l-296 205l-87 -128l-651 321l-208 255l-594 90l-210 -69l-77 487l79 78l-452 231l-514 186l-143 -165l-199 116l129 105l-332 119l78 245l234 -93l402 16l339 -130l-43 128l-262 294l174 220l120 408l261 209l434 39l561 -231l259 -23l422 104l112 306l-110 115l217 4l33 128l-272 128l17 297l290 148l60 179l239 192l203 -163l101 194l-11 187l255 104l136 -121l453 -135l327 169l178 -142l114 97l366 -29l241 75l148 -54l79 119l-104 100l25 225l-154 121l344 125l193 -18l365 200l140 -125l228 -60l636 -2l45 -69l177 265l-15 435l176 60l28 395l-273 105l113 207l259 5l94 123l395 -35l92 85l256 -93l236 122l375 352l117 -49l-83 -170l96 -91l16 -439l-52 -132l137 -41l-40 -145l348 -399l165 -87l-24 -175l138 -99l111 -263l303 -111l165 -178l-167 -379l274 -227l180 -382l-92 -125l222 75l67 -228l304 43l-117 -161l54 -124l163 61l180 -324l150 -77l-7 -232l241 105l237 -90l137 -179l87 -304l159 -63l-79 -406l204 -182l231 73l369 -131l16 -137l181 -95l174 65l357 -181l42 201l127 97l-166 313l-39 201l274 -100l70 -111l302 4l7 185l207 67l-134 383l-154 156l226 402l-317 264l6 102l-237 233l-29 264l-191 68l-149 252l-300 163l-11 311l344 -88l242 13l139 -118l125 97l344 -133l75 -235l355 -239l180 53l153 -88l409 286l153 -301l189 -126l102 -219l272 -135l491 -1l28 232l-96 173l140 308l247 90l6 365l120 166l-236 224l146 230l224 83l645 88l107 110l207 -156l124 144l-36 225l194 36l-37 407l196 232Z" centroide="-454402.9078495432,-203826.97682595288"></path><path class="C3110" d="M-469069 -201814l199 -116l143 165l514 -186l452 -231l-79 -78l77 -487l210 69l594 -90l208 -255l651 -321l87 128l296 -205l79 -246l246 -37l185 128l194 -189l370 -234l186 -20l248 -185l-125 -138l95 -144l69 -357l439 -257l90 -183l179 -37l14 -199l558 -81l16 235l267 93l127 193l261 25l182 -153l61 -206l289 -89l212 -187l84 142l359 223l361 -220l220 158l167 -168l269 -75l126 44l230 -156l52 -297l398 -28l137 -169l305 -99l2 -166l231 -74l32 -114l221 -67l368 -403l326 40l250 -229l9 -237l189 -253l384 -205l-82 -369l22 -182l313 -146l269 90l175 -214l35 -335l130 -166l492 5l132 -177l23 -186l519 -472l555 -50l257 -436l122 -78l141 113l231 -41l88 -201l-85 -115l26 -292l94 -189l143 -37l102 -248l-115 -92l-321 -29l-145 -294l-230 -258l227 -119l-74 -148l-281 -255l398 -269l329 -54l219 -144l-62 -132l368 -45l15 -160l164 80l253 -53l158 133l339 43l79 83l154 -142l134 143l201 4l181 -457l390 -127l221 -151l30 -314l-120 -267l36 -219l-118 23l2 -317l76 -243l262 -426l12 -193l-97 -152l717 26l554 -126l315 141l67 210l147 -2l317 168l211 37l238 -265l269 81l276 -190l208 4l325 -194l197 22l71 198l654 197l14 98l362 26l126 127l322 -7l64 225l271 182l-46 99l266 84l187 -141l-24 -230l382 -221l171 -203l199 73l225 -69l575 202l18 -146l254 -210l120 58l169 260l289 169l145 206l171 -18l-97 -303l-30 -403l251 -285l-115 -107l335 -150l46 86l395 -15l68 -170l-112 -161l89 -348l-57 -297l24 -250l-145 -69l-121 -280l80 -170l-57 -393l200 -161l83 -335l215 -3l171 156l308 9l5 -179l237 -290l-130 -112l-142 -353l40 -192l-301 -4l-212 -96l-97 225l-184 145l-442 -7l-182 -319l-347 -300l-331 -188l136 -53l40 -217l-237 -5l-58 -267l196 43l108 -158l-91 -352l190 -189l-51 -262l71 -58l-215 -224l-593 -172l-26 241l-288 10l-256 -165l-427 71l-277 -201l-72 136l-394 72l-229 -58l-17 -129l-381 -333l-167 -48l-190 -222l-129 71l-180 -78l-237 111l-390 -150l-197 -296l-171 -150l-450 111l-164 98l-223 -170l-463 -108l-164 -187l15 -86l-271 -170l-245 82l-303 -91l-80 -209l-423 3l-258 -225l-156 71l-470 49l-627 -199l-592 -243l-263 -417l-447 -141l-388 -189l-12 -241l-144 -108l-181 33l-391 -40l-280 -211l-368 -147l-128 19l-24 293l-226 39l-383 295l-150 -398l-122 23l-239 -205l-496 -101l-98 54l290 251l-212 247l-134 -173l-188 -50l-94 -138l-480 -134l-149 150l222 381l-40 213l-159 36l-167 -131l-230 84l-190 -306l200 -125l235 -307l-236 -104l-253 30l-77 -121l-373 -221l-238 -54l-82 -240l242 -163l392 180l265 -62l165 -297l15 -163l-171 -120l-13 -133l168 -161l-282 67l-132 150l-160 -130l40 -349l-239 -178l-120 249l-205 39l-248 -80l-165 -313l-242 -68l-23 299l-212 298l-263 -301l-126 2l-563 -430l-203 41l-228 -119l-132 53l-314 -28l-438 -283l-149 103l171 219l-82 334l-548 -138l-575 -199l-95 152l-282 -222l-224 102l-278 -169l-185 109l-118 226l49 360l-39 148l129 313l182 115l89 171l-249 -9l-134 144l-799 193l-45 205l-234 287l529 170l347 -16l-32 170l-244 79l-24 132l183 40l-161 223l84 131l-201 142l179 133l-33 105l-213 68l-141 182l-476 54l-60 101l-352 126l115 235l-192 13l-50 229l-178 -65l-191 150l-117 -49l-282 72l-348 206l55 492l-142 -34l-225 262l-34 218l-222 148l179 107l-51 336l324 404l37 456l275 -47l64 234l274 74l145 140l-176 56l-80 221l-226 167l-533 -33l-188 65l27 151l514 47l-206 314l98 151l133 -12l219 147l271 -61l-14 180l-296 224l-114 351l-180 284l205 150l56 156l-192 314l-242 121l385 457l-15 120l279 130l-48 248l78 285l-61 65l76 309l446 -95l123 64l-20 195l185 110l-48 101l347 252l-37 284l212 347l-222 198l37 291l104 117l-4 193l-118 229l-368 43l-187 157l-253 -170l-134 25l-95 280l-221 188l-3 305l-196 29l-264 -230l-143 -203l-73 119l-242 2l-231 175l32 120l-306 -100l-279 65l-187 -43l1 -128l-198 -62l-124 -140l-252 -119l-408 -96l-306 71l-196 -85l-272 44l-46 257l116 130l-50 128l123 195l-193 89l-44 207l-142 116l-90 427l-81 208l-250 63l125 332l-309 -25l-230 238l13 321l-157 204l199 283l-291 167l32 190l-179 504l132 365l-58 124l-324 163l-81 254l-204 41l-296 389l255 579l-104 264l201 266l160 37l26 383l215 309l494 -58l141 241l38 393l-152 58l41 162l-148 91l-195 475l-6 299l-111 158l-574 197l-355 193l-453 328l-34 205l107 215l-128 573l133 165l34 285l424 599l81 244l330 -28l174 -168l263 64l117 -127l7 -199l225 -217l397 106l-317 139l80 159l-58 425l390 53l236 105l291 -69l167 68l157 -75l185 197l355 46l242 -102Z" centroide="-458593.77324905124,-216235.8516560693"></path><path class="C3105" d="M-456447 -184819l99 -156l-47 -174l179 -76l62 -494l-218 -361l41 -202l-61 -373l-233 -141l-60 -212l-224 -64l-26 -341l-84 -198l204 -179l382 47l36 -281l-90 -180l12 -277l-216 30l19 -357l-250 -417l62 -135l-135 -39l-151 -272l149 -183l-161 -185l38 -256l-282 -143l-41 -323l-130 -226l-10 -183l-132 -12l-37 -348l-116 -197l-197 -139l71 -69l-144 -166l41 -317l-101 -260l-142 -72l-117 -295l61 -65l-259 -284l-3 -246l-124 -35l-114 -325l22 -326l-133 -54l-5 -334l148 -208l-300 -484l-147 -420l-135 -79l-40 -178l-375 -352l-236 -122l-256 93l-92 -85l-395 35l-94 -123l-259 -5l-113 -207l273 -105l-28 -395l-176 -60l15 -435l-177 -265l-45 69l-636 2l-228 60l-140 125l-365 -200l-193 18l-344 -125l154 -121l-25 -225l104 -100l-79 -119l-148 54l-241 -75l-366 29l-114 -97l-178 142l-327 -169l-453 135l-136 121l-255 -104l11 -187l-101 -194l-203 163l-239 -192l-60 -179l-290 -148l-17 -297l272 -128l-33 -128l-217 -4l110 -115l-112 -306l-422 -104l-259 23l-561 231l-434 -39l-261 -209l-120 -408l-174 -220l262 -294l43 -128l-339 130l-402 -16l-234 93l-78 -245l332 -119l-129 -105l-242 102l-355 -46l-185 -197l-157 75l-167 -68l-291 69l-236 -105l-390 -53l58 -425l-80 -159l317 -139l-397 -106l-225 217l-7 199l-117 127l-263 -64l-174 168l-330 28l-195 195l-112 397l-347 141l-132 214l-490 205l-130 180l-365 58l-322 314l-45 184l204 150l-388 497l-345 -60l-92 -107l-300 -12l-157 -125l-311 -6l-110 -292l-192 -163l-257 -51l-310 247l-55 206l-365 238l-210 -98l-720 28l-290 -109l-250 31l-156 -256l-6 -139l144 -126l-85 -186l-51 -346l-242 -274l-323 153l-109 153l-36 346l-299 251l-126 -49l-20 -366l-108 -262l-188 -210l-148 46l-144 -178l-274 -112l-287 21l-423 222l-79 188l-230 92l-32 183l-259 385l-207 112l-184 -57l27 -136l-93 -305l345 -374l3 -125l-360 -160l-311 64l-296 236l-595 -93l-309 97l-333 -68l-521 -179l-635 80l-386 -57l-445 -294l-280 -10l-413 60l-243 109l-498 -144l-410 22l-332 -186l19 -349l-188 -268l-148 -334l-12 -220l128 -212l-30 -377l114 -422l-194 -385l-134 -44l-632 382l-73 133l46 317v788l40 159l-103 556l-140 370l-469 207l-345 -46l-285 -713l-265 -475l-611 -412l-194 100l-223 -7l-338 451l-52 290l-350 642l-93 632l13 435l101 429l132 127l356 51l-13 301l-154 75l-325 15l-352 -196l-237 -66l-781 44l-193 43l-389 277l-107 305l-480 140l-546 -107l-250 -147h-811l-373 66l-330 2l-528 -89l-185 -131l-346 11l-577 214l-238 39l-422 -67l-351 115l-501 398l-332 18l-350 -42l-502 113l-295 -102l-461 89l-151 -62l-464 94l-644 635l-521 213l-284 -153l-196 -12l-276 -137l-331 -62l-317 -435l-223 -112l-262 -362l-773 -230l-482 -71l-337 -211l-342 -114l-246 -211l-210 7l-365 -248l-119 -147l-236 -68l-313 -489l-174 370l118 231l6 292l-155 370l185 343l30 184l-199 359l-32 630l-174 303l120 206l-181 211l76 159l3 278l602 1092l282 -75l218 22l50 162l-79 294l-321 417l-9 142l289 189l455 -134l401 -173l141 13l103 218l-504 522l375 772l152 505l339 325l173 33l238 209l63 452l79 74l510 105l100 134l-62 213l115 64l821 -31l157 182l374 259l261 421l108 383l-90 84l34 282l-112 244l62 196l446 186l177 195l199 615l292 99l241 184l178 441l379 595l642 229l514 -11l412 147l776 -80l299 287l214 421l473 -32l65 -88l433 -105l576 127l379 -254l164 41l197 -108l164 20l115 281l393 -28l273 206l235 66l343 -130l127 98l-176 185l106 183l668 129l182 -42l147 191l-56 196l140 153l395 -12l87 -157l39 -516l527 -501l124 -274l252 -81l128 43l136 250l219 193l130 326l378 14l27 179l181 184l223 43l42 146l252 395l258 169l1 113l-183 193l66 78l407 -42l364 350l198 -6l-26 -182l324 -146l304 192l66 209l124 77l238 -55l244 180l-14 152l461 349l190 4l295 -112l155 -158l407 -133l40 -291l117 -44l321 285l141 -45l124 109l271 -85l221 82l108 -51l567 99l72 126l315 -72l409 111l69 -232l283 -70l106 -125l280 144l35 -265l347 214l189 -80l208 98l61 -157l588 31l368 -169l-69 207l267 155l123 188l205 -141l266 -7l41 -157l610 -111l160 -368l317 -182l470 -14l76 148l221 -207l162 -39l138 -166l284 115l46 -350l131 -21l11 -162l326 82l153 213l263 -107l247 75l-103 95l156 212l192 -127l90 404l214 111l84 -146l209 -93l315 184l-89 65l195 366l215 -12l29 -130l162 -3l135 221l113 -31l184 319l50 -143l220 63l155 209l-281 257l197 159l-67 123l191 154l249 89l157 312l255 106l4 -240l127 -89l92 275l211 -4l172 219l173 13l114 168l154 -84l71 283l176 -84l143 58l-105 101l515 266l-19 201l350 154l395 114l4 174l-13 152l183 241l93 -44l335 131l190 303l171 71l118 242l215 4l-198 -724l179 -126l42 -319l135 -37l224 127l-87 -214l115 -264l111 11l135 -343l-151 -326l107 -68l93 -269l-42 -143l524 -121l345 189l96 -312l155 -14l327 276l86 -40l-18 -295l161 -344l207 -192l113 62l333 -256l227 -26l160 -122l298 187l80 -157l212 43l147 -386l111 137l58 -234l106 134l73 -116l314 11l-94 -142l283 -218l336 -155l143 71l76 -198l177 38l233 -152l46 -119l441 -243l436 -71l210 -130l19 -129l231 -115l391 14l195 -134l77 -184l-23 -212l177 -306l264 248l58 149l318 180l203 -75l121 401l115 -184l208 -112l-70 -132l164 -33l-34 170l680 235l137 -114l163 80l55 -183l401 54l7 -119l254 61l368 -275l159 262l173 40l155 -273l140 -107l207 58l141 -126l267 -25l139 -149l227 -20l295 264l-64 144l141 165l-36 182l128 156l-137 201l325 171l67 -131l263 -101l172 -171l190 191l275 -42l318 105Z" centroide="-482025.06244711735,-192320.76071738606"></path><path class="C3104" d="M-404336 -168874l-178 -35l-88 125l-199 16l-122 -105l-48 -300l-188 -454l-295 -214l-144 -575l-117 -242l148 -238l-56 -337l-167 -249l65 -341l187 -67l-160 -525l79 -310l142 -112l-245 -110l-226 -288l-142 -33l163 -186l-119 -107l53 -357l-233 -113l252 -175l200 70l233 -219l336 -93l-4 -135l256 -284l124 -17l-61 -313l139 -140l147 -348l167 -105l156 123l175 -15l-76 -308l214 -266l250 132l172 -318l75 323l236 -288l7 -206l238 -131l36 -250l152 -233l244 32l156 -154l163 9l101 -184l-42 -432l120 -68l17 -262l227 -73l75 -156l-385 -442l-509 -263l38 -180l329 -182l46 -222l-331 88l-902 479l-409 -47l-310 14l-276 82l-177 -94l-276 209l-102 -43l-265 197l-409 -241l-168 -21l-24 -209l-281 -32l-109 -488l-199 -25l-157 -193l-196 27l-223 -136l-221 225l-270 -84l-190 63l8 169l-213 48l-62 247l-265 -67l-56 95l-326 -342l-186 173l-211 -167l159 -129l1136 -1069l19 -484l-233 -41l-686 209l-280 291l-129 -1l-280 -262l-169 77l-54 -258l-258 131l-80 -284l-217 21l-45 101l-374 -76l-44 -137l-364 -166l-117 -178l132 -170l-115 -67l63 -186l-625 -527l115 -451l-7 -258l-114 -23l-9 -213l132 -87l-194 -38l-152 -243l-276 -161l-46 -170l-250 -163l-162 5l-134 -140l-137 10l-105 256l111 175l-188 80l-112 -263l-171 76l73 241l-124 133l73 354l180 44l-81 650l247 -28l47 153l-257 165l-254 298l-295 -54l-174 70l-316 -147l-115 23l44 303l-96 84l-212 -229l-230 85l-330 -57l-69 104l-262 -167l-398 67l-140 271l-256 90l-199 220l52 213l-111 86l-65 534l301 108l134 221l5 255l197 53l194 154l45 164l-207 57l-16 364l-92 144l-266 43l-336 276l-91 225l-116 -30l-141 196l-232 -213l-439 15l85 -165l-183 -86l-278 8l-75 -345l-176 -49l62 -318l-165 -127l-8 -189l-293 -38l-206 -220l-89 -266l-206 -222l-377 -35l-126 112l-105 -84l-182 83l-57 -138l-484 -253l-101 152l-11 279l-221 228l-222 72l-301 448l-196 175l-150 23l-231 332l-42 229l-322 444l-180 -1l-235 332l-125 268l51 364l125 112l-25 144l304 219l219 -45l-59 142l78 201l-116 319l-172 109l67 165l-229 263l75 336l-129 154l-255 64l355 412l-75 227l408 467l-2 260l275 174l209 -96l57 -291l148 -347l104 -5l127 -332l-55 -220l237 -238l351 -124l274 59l304 -145l200 -228l517 523l135 72l32 172l133 2l-41 202l102 109l194 -2l188 185l227 -31l394 165l80 165l223 125l-36 103l295 223l-151 136l89 351l133 46l208 462l158 482l187 120l10 257l163 155l325 29l286 -185l104 -145l550 -86l285 -255l768 -258l243 82l44 185l472 49l131 -450l290 281l70 383l-43 299l-144 113l-57 229l93 44l-117 224l39 353l173 188l-196 13l152 226l14 451l153 -1l119 205l197 62l206 -156l449 22l49 122l160 -38l84 117l298 108l-58 161l186 19l176 321l272 204l381 -156l182 336l217 86l165 -124l350 311l10 306l218 201l21 123l198 205l299 92l437 -596l208 23l197 137l77 175l440 132l472 -226l366 87l224 342l205 111l392 62l400 -199l129 6l500 -389l202 29l197 -207l129 -296Z" centroide="-411942.42506318097,-176333.54943471932"></path><path class="C3108" d="M-422665 -177883l25 -144l-125 -112l-51 -364l125 -268l235 -332l180 1l322 -444l42 -229l231 -332l150 -23l196 -175l301 -448l222 -72l221 -228l11 -279l101 -152l484 253l57 138l182 -83l105 84l126 -112l377 35l206 222l89 266l206 220l293 38l8 189l165 127l-62 318l176 49l75 345l278 -8l183 86l-85 165l439 -15l232 213l141 -196l116 30l91 -225l336 -276l266 -43l92 -144l16 -364l207 -57l-45 -164l-194 -154l-197 -53l-5 -255l-134 -221l-301 -108l65 -534l111 -86l-52 -213l199 -220l256 -90l140 -271l398 -67l262 167l69 -104l330 57l230 -85l212 229l96 -84l-44 -303l115 -23l316 147l174 -70l295 54l254 -298l257 -165l-47 -153l-247 28l81 -650l-180 -44l-73 -354l124 -133l-73 -241l171 -76l112 263l188 -80l-111 -175l105 -256l137 -10l134 140l162 -5l250 163l46 170l276 161l88 -31l1500 -146l72 -196l-261 -1286l95 -126l-207 -106l235 -250l244 -136l514 -144l124 -76l14 -810l202 -301l31 -152l-199 -155l-91 57l-182 -158l-552 38l-914 -16l-229 421l-991 -4l-125 -261l57 -353l246 -190l63 226l190 -92l231 60l134 -284l261 -79l232 -395l390 -112l40 -230l174 -113l252 60l-142 -173l-334 -148l-61 -182l62 -275l117 -175l284 -110l128 40l56 -247l224 -2l33 -117l252 -167l-60 -102l186 -70l25 -342l184 -235l-189 -261l29 -192l185 -25l-17 -200l-226 -88l118 -154l250 -128l-308 -372l80 -381l-203 -88l-172 -375l233 -305l-270 -348l-6 -94l-473 5l-271 173l54 -273l-34 -209l78 -349l-351 -140l-13 -135l-261 -63l-84 -330l-216 -55l-80 -148l-311 -147l-84 -264l-31 -420l-111 -52l164 -214l105 -391l-199 -425l-21 -425l-189 -117l-246 -40l-148 -303l-281 -51l-283 59l-109 -359l-81 -62l111 -184l-98 -445l-141 -161l-55 -305l-442 -1009l-295 -171l-257 149l94 265l-267 445l-137 94l-223 -87l-125 158l45 278l-172 238l-224 -60l-234 339l141 279l-210 91l-245 -147l-232 187l-137 -96l-277 227l13 281l-228 -167l-191 33l-48 -189l-190 -130l24 -103l-261 90l-357 48l-183 -87l-152 500l-135 -54l-148 253l136 257l222 216l-133 39l58 328l150 55l-263 45l-355 -328l-87 32l-198 -278l-382 78l-262 -68l-191 43v-574l-136 141l-278 80l-463 -349l-134 138l-107 -235l-188 -65l-34 -335l-176 -183l-162 32l-215 259l40 327l-85 28l-84 288l-137 39l-336 -91l-80 59l-426 -66l-124 72l-113 -123l-589 92l-60 174l112 41l-201 465l-169 -61l-389 113l-151 -39l-158 -403l-209 -105l-53 104l-236 -88l-429 217l-5 153l292 243l158 225l89 289l231 203l-77 145l-63 -234l-235 -96l-162 -155l-184 52l-261 -50l-86 101l-241 13l-99 91l-459 -25l-101 140l-238 -20l-96 206l-184 -16l-157 -337l-166 101l-219 -122l-288 104l30 209l-91 101l121 419l-294 -99l-300 59l84 -205l-324 -102l-65 136l-185 -171l-49 251l-148 270l-221 -164l-192 175l-4 262l-140 96l-2 246l-213 1l38 221l-48 361l-173 193l-220 -49l15 471l-197 486l88 109l-13 320l105 19l351 -213l89 -320l204 -219l32 -273l313 -67l330 99l30 408l286 7l-68 203l159 351l534 164l408 64l254 286l261 418l7 114l-170 388l45 230l-68 337l-285 85l-3 157l-178 132l46 165l163 53l-13 157l-429 -106l-153 198l-165 -18l-238 208l-319 125l-198 -22l-198 -233l-55 -168l-245 217l-165 61l-70 227l-375 181l-85 152l-339 88l-196 -485l-206 -147l-40 109l-403 -14l-218 -263l-99 48l-317 -51l-106 100l-196 -103l-228 131l87 126l-222 189l304 -6l293 126l-162 153l23 181l135 84l-131 222l242 147l9 228l242 87l111 -109l274 131l-157 268l45 182l-406 549l92 107l-84 199l24 522l-77 163l-333 -1l189 328l-13 84l434 187l-258 176l-38 335l109 395l-109 238l241 -43l99 294l289 193l8 128l-175 166l84 200l-56 231l447 36l193 86l-13 341l-76 170l191 79l129 216l68 -110l240 21l151 -83l188 152l104 -50l199 169l146 -89l234 132l147 -63l60 136l136 -102l429 127l50 120l-80 238l60 294l-199 229l-262 -142l-102 96l-33 337l-200 120l158 529l404 230l224 359l87 -4l181 298l207 8l259 -117l282 231l96 -63l250 64l57 -99l213 -12l97 244l273 189l281 89l280 264l97 257l311 12l69 381l271 18l117 -154l86 283l169 -18l142 130l-57 309l140 225l-45 85l151 250l-32 232l360 -1l244 183l187 -181l138 173l-91 153l117 135l161 -158l214 48l104 -78l366 53l221 -82Z" centroide="-420474.5443071796,-189852.46627116165"></path><path class="C3112" d="M-414118 -202061l-37 -12l-3412 5l-104 -224l-150 -652l-429 -179l-282 -382l-62 -223l144 -45l118 -349l304 -109l34 -541l-260 -60l136 -334h0l35 -339l-200 -67l-129 -432l-150 -169l388 -72l102 -191l-407 -430l-132 -360l22 -208l-119 11l-39 -235l-44 -133l-259 -182l-236 32l-67 -349l87 -97l-407 -597l-92 -374l-453 105l-259 -94l-460 -9l-215 -234l-228 -10l-133 -150l104 -179l253 -175l308 -125l45 -130l-207 18l-35 -206l-267 -246l-85 -234l-239 21l-70 -280l-209 -184l-24 -172l-144 -147l139 -234l-80 -193l144 -87l-17 -202l-390 -319l-4 -245l-84 -107l133 -202l-121 -96l64 -190l-220 -211l136 -160l-167 -62l-129 102l-100 -96l26 -192l-168 -309l241 -96l134 -181l-217 -213h0l-119 -198l-181 -14l-37 -228l-205 -94l57 -79l-187 -112l-256 -392l137 -51l-144 -139l216 -27l79 -202l388 70l258 -217l108 -172l-16 -207l-400 -140l-269 -174l-243 48l-379 -206l-426 -145l-1628 -690l-133 -107l-706 -233l-550 -295l-478 -209l-937 -297l30 -64l-307 -249l-598 -243l-243 -208l-114 42l-345 -131l60 -214l-424 -272l-306 105l-161 -67l-43 -144l-157 -6l-125 268l216 197l42 289l-247 -40l-159 111l-325 -156l7 116l-202 -79l-250 272l-322 -40l-235 -105l-140 134l-488 -28l-28 -94l-506 -340l-189 -62l-277 -127l-388 -25l-34 137l-524 -223l-244 127l-10 193l-343 -323l-263 193l-205 -101l-58 -154l-101 188l-372 -89l-117 -153l-162 26l-171 296l-352 -190l-421 -166l-391 -23l-119 -122l-609 -287l-117 30l-396 -234l-222 117l-129 -91l-321 -44l-39 -107l-241 23l-234 -152l20 -208l-243 -45l-190 -198l-147 47l-71 58l51 262l-190 189l91 352l-108 158l-196 -43l58 267l237 5l-40 217l-136 53l331 188l347 300l182 319l442 7l184 -145l97 -225l212 96l301 4l-40 192l142 353l130 112l-237 290l-5 179l-308 -9l-171 -156l-215 3l-83 335l-200 161l57 393l-80 170l121 280l145 69l-24 250l57 297l173 171l297 -7l368 173l-79 165l-233 96l98 121l299 -92l74 127l235 35l-196 236l-408 84l-19 158l-216 -6l-503 475l-90 251l312 42l54 101l428 -213l369 -24l69 140l222 95l91 -74l73 188l364 -54l376 147l178 -128l31 91l199 -255l170 38l571 -87l239 -445l235 -102l143 282l-90 121l67 200l322 280l-60 275l-182 65l-39 314l-324 185l218 282l118 -46l182 126l84 -82l268 207l177 323l109 -58l97 174l274 143l156 -138l132 79l216 -31l28 175l189 150l231 72l180 258l-39 248l121 22l-44 244l-117 48l1 195l309 74l19 106l-181 148l-274 -44l-9 151l-333 161l-181 589l-249 -11l232 116l-176 497l-230 180l-7 290l271 169l-25 118l-227 165l-64 332l-142 -68l-408 201l113 20l86 241l155 88l163 234l104 413l245 9l42 -108l334 72l20 345l71 -130l488 237l-110 237l153 89l-37 234l-224 267l163 98l-84 273l174 -31l59 199l103 -34l140 163l-6 181l362 -21l40 174l301 65l324 312l436 -279l65 -256l543 235l137 -6l155 146l378 94l496 187l106 182l168 82l-38 125l-196 113l-489 -166l3 197l-192 192l-246 97l151 233l-102 69l50 241l256 52l-141 261l-307 8l61 121l-105 128l116 204l197 177l45 183l-135 264l-30 287l118 108l186 -110l364 45l311 -193l107 205l273 83l306 241l319 464l41 375l327 205l251 -114l147 135l140 -37l353 224l413 -70l100 -79l200 215l38 -134l184 -24l80 228l189 -156l252 182l307 39l298 311l-42 359l473 173l383 242l429 -217l236 88l53 -104l209 105l158 403l151 39l389 -113l169 61l201 -465l-112 -41l60 -174l589 -92l113 123l124 -72l426 66l80 -59l336 91l137 -39l84 -288l85 -28l-40 -327l215 -259l162 -32l176 183l34 335l188 65l107 235l134 -138l463 349l278 -80l136 -141v574l191 -43l262 68l382 -78l198 278l87 -32l355 328l263 -45l-150 -55l-58 -328l133 -39l-222 -216l-136 -257l148 -253l135 54l152 -500l183 87l357 -48l261 -90l-24 103l190 130l48 189l191 -33l228 167l-13 -281l277 -227l137 96l232 -187l245 147l210 -91l-141 -279l234 -339l224 60l172 -238l-45 -278l125 -158l223 87l137 -94l267 -445l-94 -265l257 -149Z" centroide="-428193.29077105713,-210109.02771941468"></path></g></svg>